<?xml version="1.0" encoding="utf-8"?>
<!-- Generator: Adobe Illustrator 21.1.0, SVG Export Plug-In . SVG Version: 6.00 Build 0)  -->
<svg version="1.1" id="Layer_1" xmlns="http://www.w3.org/2000/svg" xmlns:xlink="http://www.w3.org/1999/xlink" x="0px" y="0px"
	 viewBox="0 0 188 59" style="enable-background:new 0 0 188 59;" xml:space="preserve">
<style type="text/css">
	.st0{fill:#FFFFFF;}
	.st1{fill:url(#Head_1_);}
	.st2{fill:url(#path-3_2_);}
</style>
<g>
	<path id="path-3" class="st0" d="M38.8,5.8l-5-5.8H25h-8.8l-5,5.8c0,0-4.4-1.2-6.5,0.9c0,0,5.9-0.5,7.9,2.8c0,0,5.4,1.1,6.2,1.1
		s2.3-0.6,3.8-1.1C24,8.9,25,8.9,25,8.9s1,0,2.4,0.5c1.5,0.5,3,1.1,3.8,1.1s6.2-1.1,6.2-1.1c2-3.3,7.9-2.8,7.9-2.8
		C43.2,4.5,38.8,5.8,38.8,5.8"/>
</g>
<title>Logotypes/bat/logo-dark@1x</title>
<desc>Created with Sketch.</desc>
<g id="Branding">
	<g id="logo_brave" transform="translate(-46.000000, -42.000000)">
		<g id="Logo_x2F_Logotypes_x2F_brave_x2F_logo-dark" transform="translate(46.000000, 42.000000)">
			<g id="Logotypes_x2F_brave_x2F_logo-dark" transform="translate(-3.910345, 0.000000)">
				<g id="Group-5">
					<g id="Group-4" transform="translate(66.475862, 11.494737)">
						<path id="Shape" class="st0" d="M0.1,20.1v-20H2c1.5,0,2.8,1.3,2.8,2.8v8.9c3-2.7,5.6-3.8,9-3.9c6.6-0.1,12.3,4.8,12.8,11.5
							c0.6,8-5,13.9-12.5,13.9C6,33.3,0.1,28.2,0.1,20.1z M4.7,21.7c0.5,4.1,4.3,7.6,8.5,7.6c5.3,0.1,9-3.5,9-8.7s-3.6-8.7-8.8-8.7
							C7.8,11.9,4.1,16,4.7,21.7L4.7,21.7z"/>
						<path id="Shape_1_" class="st0" d="M34.4,8.4V12c2.9-3.3,4.7-4.2,8.1-4.2c1,0,2,0.1,3,0.2v4.7c-1.1-0.3-2.1-0.4-3.2-0.4
							c-2.5,0-4.6,0.8-6.1,2.4c-1.3,1.4-1.7,2.4-1.7,4.6v13.2h-4.8V8.4H34.4z"/>
						<path id="Shape_2_" class="st0" d="M46.6,16.4c0.2-2.3,0.7-3.6,1.7-4.8c2-2.5,5.6-3.8,10.7-3.8c4,0,7,0.6,9,2
							c1.7,1.1,2.4,2.8,2.4,5.7v10.7c0,2.3,0.6,3.2,2.2,3.1c0.4,0,0.7,0,1.1-0.1v3.2c-0.8,0.3-1.7,0.4-2.5,0.4c-3,0-4.4-0.9-5.4-3.6
							c-3,2.8-6.1,4-10.5,4c-5.9,0-9.6-2.7-9.6-7.2c0-2.5,1.4-4.8,3.7-5.9c1.8-0.8,2.9-1,8-1.6c4.4-0.4,5.1-0.5,6.4-0.9
							c1.3-0.4,1.9-1.2,1.9-2.4c0-2.6-2.1-3.8-6.6-3.8c-4.2,0-6.4,0.9-7.3,3c-0.4,1.1-1.5,1.8-2.7,1.9L46.6,16.4z M65.8,20.5
							c-3.1,0.9-6.2,1.5-9.4,1.8c-4.3,0.4-5.7,1.3-5.7,3.5c0,2.4,2,3.7,5.9,3.7c3.2,0,5.7-0.8,7.4-2.4c1.4-1.3,1.7-2.2,1.7-4.6V20.5
							z"/>
						<path id="Shape_3_" class="st0" d="M85.4,32.5h-1.2c-1.1,0-2.1-0.6-2.6-1.6L71.1,8.4H74c1.7,0,3.2,1,3.9,2.6l7,16.1l7.2-16.2
							c0.7-1.5,2.2-2.5,3.9-2.5h2.6L88,30.9C87.5,31.9,86.5,32.5,85.4,32.5L85.4,32.5z"/>
						<path id="Shape_4_" class="st0" d="M101.9,21.9c0.5,4.6,4.1,7.5,9.4,7.5c3,0,5.3-0.9,6.7-2.7c0.8-1,2.1-1.7,3.4-1.7h2.8
							c-2.4,5.5-6.8,8.2-13.3,8.2c-8.1,0-13.6-5-13.6-12.6S102.9,7.8,111,7.8c5.9,0,10.6,2.7,12.5,7.2c0.8,2.1,1.2,3.9,1.2,6.9
							L101.9,21.9z M119.7,18.1c-1.1-4.3-4.3-6.6-8.8-6.6s-7.7,2.4-8.9,6.6H119.7z"/>
					</g>
					<g id="Build-Icons_x2F_Release">
						<g id="Logo" transform="translate(4.510718, 0.000000)">
							
								<linearGradient id="Head_1_" gradientUnits="userSpaceOnUse" x1="-507.0056" y1="419.2217" x2="-506.0056" y2="419.2217" gradientTransform="matrix(48.7978 0 0 -58.296 24740.7402 24468.0957)">
								<stop  offset="0" style="stop-color:#FF5500"/>
								<stop  offset="0.4099" style="stop-color:#FF5500"/>
								<stop  offset="0.582" style="stop-color:#FF2000"/>
								<stop  offset="1" style="stop-color:#FF2000"/>
							</linearGradient>
							<path id="Head" class="st1" d="M47.1,14l1.3-3.4c0,0-1.7-1.9-3.8-4s-6.5-0.9-6.5-0.9l-5-5.8h-8.8h-8.8l-5,5.8
								c0,0-4.4-1.2-6.5,0.9s-3.8,4-3.8,4L1.7,14L0,19c0,0,5,19.4,5.6,21.8c1.2,4.7,2,6.5,5.2,8.8s9.3,6.5,10.2,7.1
								c1,0.6,2.2,1.7,3.3,1.7c1.1,0,2.3-1.1,3.3-1.7c1-0.6,7-4.7,10.2-7.1s4.1-4.2,5.2-8.8c0.6-2.4,5.6-21.8,5.6-21.8L47.1,14z"/>
							<path id="Face" class="st0" d="M24.4,36.3c0.3,0,2.5,0.8,4.2,1.7c1.7,0.9,3,1.5,3.4,1.8c0.4,0.3,0.2,0.7-0.2,1
								c-0.4,0.3-5.2,4.1-5.7,4.5c-0.5,0.4-1.2,1.1-1.6,1.1s-1.2-0.7-1.6-1.1c-0.5-0.4-5.3-4.3-5.7-4.5c-0.4-0.3-0.6-0.7-0.2-1
								c0.4-0.3,1.6-0.9,3.4-1.8C21.9,37,24.1,36.3,24.4,36.3z M24.4,8.9c0.2,0,1.1,0.1,2.4,0.5c1.5,0.5,3,1.1,3.8,1.1
								s6.2-1.1,6.2-1.1s6.4,7.9,6.4,9.6c0,1.7-0.8,2.1-1.6,3c-0.8,0.9-4.4,4.7-4.8,5.2c-0.5,0.5-1.4,1.2-0.8,2.6
								c0.6,1.3,1.4,3.1,0.5,4.8c-0.9,1.7-2.5,2.9-3.5,2.7c-1-0.2-3.4-1.5-4.2-2c-0.9-0.6-3.6-2.9-3.6-3.8c0-0.9,2.8-2.5,3.4-2.8
								c0.5-0.4,2.9-1.8,3-2.3c0-0.5,0-0.7-0.7-2.1c-0.7-1.4-2-3.2-1.8-4.4c0.2-1.2,2.3-1.8,3.7-2.4c1.5-0.6,4.3-1.6,4.6-1.8
								c0.4-0.2,0.3-0.3-0.8-0.4c-1.1-0.1-4.1-0.5-5.5-0.1s-3.7,1-3.9,1.3S26.8,16.9,27,18c0.2,1.1,1.2,6.3,1.3,7.2
								c0.1,0.9,0.3,1.5-0.7,1.8c-1,0.2-2.6,0.6-3.2,0.6s-2.2-0.4-3.2-0.6c-1-0.2-0.8-0.8-0.7-1.8c0.1-0.9,1.1-6.1,1.3-7.2
								c0.2-1.1,0-1.1-0.2-1.4c-0.2-0.3-2.5-0.9-3.9-1.3c-1.4-0.4-4.4,0-5.5,0.1s-1.2,0.3-0.8,0.4c0.4,0.2,3.2,1.2,4.6,1.8
								c1.5,0.6,3.5,1.2,3.7,2.4c0.2,1.2-1.1,3-1.8,4.4c-0.7,1.4-0.7,1.5-0.7,2.1c0,0.5,2.4,1.9,3,2.3c0.5,0.4,3.4,2,3.4,2.8
								c0,0.9-2.8,3.2-3.6,3.8c-0.9,0.6-3.2,1.8-4.2,2c-1,0.2-2.6-1-3.5-2.7c-0.9-1.7-0.1-3.5,0.5-4.8c0.6-1.3-0.4-2.1-0.8-2.6
								c-0.5-0.5-4-4.3-4.8-5.2c-0.8-0.9-1.6-1.3-1.6-3c0-1.7,6.4-9.6,6.4-9.6s5.4,1.1,6.2,1.1s2.3-0.6,3.8-1.1
								C23.3,8.9,24.2,8.9,24.4,8.9L24.4,8.9z"/>
							<g id="Top-Head">
								
									<linearGradient id="path-3_2_" gradientUnits="userSpaceOnUse" x1="-504.8141" y1="390.6573" x2="-503.8356" y2="390.6573" gradientTransform="matrix(40.5021 0 0 -10.5044 20451.0723 4108.8623)">
									<stop  offset="0" style="stop-color:#FF452A"/>
									<stop  offset="1" style="stop-color:#FF2000"/>
								</linearGradient>
								<path id="path-3_1_" class="st2" d="M38.2,5.8l-5-5.8h-8.8h-8.8l-5,5.8c0,0-4.4-1.2-6.5,0.9c0,0,5.9-0.5,7.9,2.8
									c0,0,5.4,1.1,6.2,1.1s2.3-0.6,3.8-1.1c1.5-0.5,2.4-0.5,2.4-0.5s1,0,2.4,0.5c1.5,0.5,3,1.1,3.8,1.1s6.2-1.1,6.2-1.1
									c2-3.3,7.9-2.8,7.9-2.8C42.6,4.5,38.2,5.8,38.2,5.8"/>
							</g>
						</g>
					</g>
				</g>
			</g>
		</g>
	</g>
</g>
</svg>
