<?xml version="1.0" encoding="UTF-8"?>
<svg width="189px" height="62px" viewBox="0 0 189 62" version="1.1" xmlns="http://www.w3.org/2000/svg" xmlns:xlink="http://www.w3.org/1999/xlink">
    <!-- Generator: Sketch 59.1 (86144) - https://sketch.com -->
    <title>Logotypes/bat/logo-dark Copy</title>
    <desc>Created with Sketch.</desc>
    <defs>
        <path d="M37.693221,-1.25175324 C38.0466703,-1.25175324 38.3830441,-1.09706108 38.6165925,-0.827111672 L43.1380269,4.39903689 C43.1941821,4.38830655 43.2523999,4.37754191 43.3125912,4.36680876 C44.4016232,4.1726157 45.5240534,4.10162416 46.6014877,4.23024459 C47.9781182,4.39458204 49.1556404,4.87486563 50.031119,5.76681842 C50.9452854,6.69818702 51.8548824,7.64836133 52.7184347,8.56726577 C53.0207333,8.88894118 53.2957883,9.18384379 53.5383819,9.44568497 C53.6234576,9.53751077 53.6984525,9.61870367 53.7627131,9.68847673 C54.1690715,10.1317523 54.2625713,10.6489099 54.0819996,11.1004717 L52.915302,14.0180714 L54.4697941,18.543053 C54.5507823,18.7788019 54.5606188,19.0338119 54.4980389,19.2752947 C54.4869755,19.3179862 54.4869755,19.3179862 54.4344003,19.5208909 C54.3624531,19.7985766 54.3624531,19.7985766 54.2545293,20.2151729 C54.0608178,20.9629469 53.8449669,21.7963779 53.6125116,22.6941628 C52.9483569,25.25925 52.2842038,27.8261328 51.6643374,30.2243737 C50.1341656,36.144636 49.1308726,40.0425565 48.8893763,41.013917 C47.5745538,46.3016699 46.5314549,48.1372897 43.1595647,50.5547514 C40.2054857,52.6726652 34.04124,56.9224522 32.8560616,57.6771274 C32.7427986,57.7492489 32.6175176,57.8332954 32.4516034,57.9477836 C32.3870923,57.9922992 32.0739882,58.2101453 31.9841787,58.2720279 C31.4080304,58.6690189 30.9969852,58.9234273 30.5540089,59.1333304 C29.9922568,59.399515 29.4547465,59.5478013 28.9096237,59.5478013 C28.3645008,59.5478013 27.8269905,59.399515 27.2652384,59.1333304 C26.8222621,58.9234273 26.4112169,58.6690189 25.8350686,58.2720279 C25.7452591,58.2101453 25.432155,57.9922992 25.3676439,57.9477836 C25.2017297,57.8332954 25.0764488,57.7492489 24.9631857,57.6771274 C23.7780073,56.9224522 17.6137616,52.6726652 14.6596826,50.5547514 C11.2877924,48.1372897 10.2446935,46.3016699 8.92987494,41.0139329 C8.68833137,40.0425835 7.68502844,36.1446753 6.16609386,30.267832 C5.53505255,27.8263311 4.87089613,25.2593954 4.20673824,22.6942457 C3.97428182,21.7964389 3.75842979,20.9629864 3.56471737,20.2151922 C3.45679304,19.7985844 3.45679304,19.7985844 3.38484546,19.5208909 C3.33227006,19.3179804 3.33227006,19.3179804 3.32120653,19.2752875 C3.25862872,19.0338068 3.26846587,18.7787995 3.34945318,18.543053 L4.90394526,14.0180714 L3.73724774,11.1004717 C3.55667599,10.6489099 3.65017579,10.1317523 3.97686068,9.77514627 C4.12079486,9.61870367 4.19578966,9.53751077 4.28086545,9.44568497 C4.52345897,9.18384379 4.798514,8.88894118 5.10081262,8.56726577 C5.96436495,7.64836133 6.87396193,6.69818702 7.78812832,5.76681842 C8.6636069,4.87486563 9.84112909,4.39458204 11.2177596,4.23024459 C12.295194,4.10162416 13.4176241,4.1726157 14.5066561,4.36680876 C14.5668474,4.37754191 14.6250652,4.38830655 14.6812204,4.39903689 L19.2026548,-0.827111672 C19.4362032,-1.09706108 19.7725771,-1.25175324 20.1260263,-1.25175324 L37.693221,-1.25175324 Z M37.1372308,1.25180295 L20.6820165,1.25180295 L16.047627,6.60851183 C15.7359005,6.96882426 15.24913,7.11600663 14.7946187,6.98737773 C14.7709262,6.98067264 14.7117778,6.96522864 14.6215011,6.94386139 C14.4630081,6.90634826 14.2816834,6.86839988 14.0819623,6.83278619 C13.2085435,6.67704066 12.3120448,6.62033885 11.5044425,6.71674765 C10.6329077,6.8207885 9.96262796,7.09417982 9.52897547,7.53599251 C8.62847503,8.45343801 7.73102984,9.39091843 6.8790358,10.2975237 C6.67780678,10.5116511 6.4889149,10.713646 6.31397928,10.9015605 L7.35814123,13.5127313 C7.47107008,13.7951363 7.47882574,14.1097711 7.37995256,14.3975817 L5.79628599,19.0074875 C5.83926218,19.1733626 5.85493978,19.2338811 5.94384622,19.5770762 C6.13758344,20.3249662 6.35346102,21.1585174 6.58594419,22.0564275 C7.2501851,24.6218978 7.91442748,27.1891657 8.53439692,29.5878293 C10.0684409,35.5231313 11.0706128,39.4166455 11.3150986,40.3998269 C12.4980064,45.157065 13.2510593,46.4822691 16.0768061,48.5081758 C18.9973238,50.602028 25.1289939,54.8293565 26.2683635,55.5548624 C26.4117326,55.6461542 26.5598481,55.7455197 26.7485655,55.8757431 C26.8185378,55.9240271 27.1307258,56.1412359 27.2146166,56.1990403 C27.6901995,56.5267374 28.0090335,56.7240734 28.3038898,56.8637903 C28.5664471,56.9882023 28.7695918,57.0442451 28.9096237,57.0442451 C29.0496555,57.0442451 29.2528002,56.9882023 29.5153575,56.8637903 C29.8102139,56.7240734 30.1290478,56.5267374 30.6046307,56.1990403 C30.6885215,56.1412359 31.0007095,55.9240271 31.0706819,55.8757431 C31.2593992,55.7455197 31.4075147,55.6461542 31.5508838,55.5548624 C32.6902534,54.8293565 38.8219235,50.602028 41.7424412,48.5081758 C44.568188,46.4822691 45.3212409,45.157065 46.5041378,40.3998707 C46.7485771,39.4166726 47.7507328,35.5231706 49.2736286,29.6310589 C49.9048309,27.1889595 50.5690705,24.6217425 51.2333086,22.056333 C51.4657908,21.1584441 51.6816675,20.324914 51.8754039,19.5770437 C51.9643076,19.233867 51.9799867,19.1733441 52.02296,19.0074837 L50.4392947,14.3975817 C50.3404216,14.1097711 50.3481772,13.7951363 50.4611061,13.5127313 L51.505268,10.9015605 C51.3303324,10.713646 51.1414405,10.5116511 50.9402115,10.2975237 C50.0882175,9.39091843 49.1907723,8.45343801 48.2902718,7.53599251 C47.8566194,7.09417982 47.1863396,6.8207885 46.3148048,6.71674765 C45.5072025,6.62033885 44.6107038,6.67704066 43.737285,6.83278619 C43.5375639,6.86839988 43.3562392,6.90634826 43.1977462,6.94386139 C43.1074695,6.96522864 43.0483211,6.98067264 43.0246286,6.98737773 C42.5701173,7.11600663 42.0833468,6.96882426 41.7716203,6.60851183 L37.1372308,1.25180295 Z M28.9095993,36.2785924 C29.2439859,36.2785924 31.3864517,37.0491905 33.1057189,37.9555134 C34.8248641,38.8619605 36.070793,39.5029242 36.4691048,39.7568487 C36.8672945,40.0108975 36.6244036,40.489787 36.2617143,40.7510446 C35.8989029,41.0123022 31.0238843,44.8583327 30.55079,45.2834046 C30.0775737,45.7086007 29.3823276,46.4107151 28.9095993,46.4107151 C28.4368709,46.4107151 27.7415028,45.7086007 27.2684085,45.2834046 C26.7951922,44.8583327 21.9202956,41.0123022 21.5574842,40.7510446 C21.1946729,40.489787 20.951904,40.0108975 21.3500938,39.7568487 C21.7484055,39.5029242 22.9943344,38.8619605 24.7136016,37.9555134 C26.4326248,37.0491905 28.5752126,36.2785924 28.9095993,36.2785924 Z M28.9162101,8.8850989 C29.0036783,8.88648393 29.95529,8.91230018 31.3495118,9.38578598 C32.8134447,9.88294608 34.399372,10.5043962 35.1313385,10.5043962 C35.8633049,10.5043962 41.2920561,9.44793099 41.2920561,9.44793099 C41.2920561,9.44793099 47.7255532,17.37142 47.7255532,19.0648716 C47.7255532,20.7583231 46.9162423,21.2052701 46.1025396,22.0856163 C45.2888369,22.9659625 41.7350178,26.8107501 41.2786367,27.3044301 C40.8222556,27.7982344 39.8721632,28.5468332 40.4310196,29.8942613 C40.9898759,31.2416895 41.8143141,32.9562703 40.8975262,34.6953363 C39.9806162,36.4344023 38.4099382,37.5951469 37.4034843,37.4032431 C36.3970305,37.211215 34.0333888,35.9527785 33.1641786,35.3779371 C32.2949685,34.8030958 29.5400908,32.4883184 29.5400908,31.6026277 C29.5400908,30.7170613 32.3878062,29.1268947 32.9138461,28.7655836 C33.44013,28.4043968 35.83976,27.0060097 35.8889237,26.457145 C35.9379655,25.908156 35.9193004,25.7472004 35.2111228,24.3909477 C34.5029453,23.0345706 33.2276157,21.2246593 33.439886,20.0204133 C33.6521563,18.8162915 35.708982,18.1901184 37.1768187,17.6253445 C38.6444114,17.0606949 41.4704119,15.9941622 41.8233417,15.8283594 C42.1765155,15.6624322 42.0852637,15.5044596 41.0157388,15.4011745 C39.9464578,15.2978895 36.9117249,14.8874839 35.5435576,15.2760145 C34.1753903,15.6645451 31.8379774,16.2556685 31.6486421,16.5691279 C31.4593068,16.8825873 31.2922964,16.893152 31.4867555,17.9744752 C31.6810926,19.0557984 32.6821787,24.2444097 32.7792863,25.1660202 C32.8765158,26.0876308 33.0665831,26.6969005 32.0912378,26.9241026 C31.1157705,27.1513048 29.4738478,27.5458013 28.9096237,27.5458013 C28.3453995,27.5458013 26.7033548,27.1513048 25.7280095,26.9241026 C24.7525422,26.6969005 24.9426095,26.0876308 25.039839,25.1660202 C25.1370686,24.2444097 26.1380327,19.0557984 26.3324918,17.9744752 C26.5268289,16.893152 26.3598185,16.8825873 26.1706052,16.5691279 C25.9812699,16.2556685 23.643735,15.6645451 22.2755677,15.2760145 C20.9074004,14.8874839 17.8727895,15.2978895 16.8033866,15.4011745 C15.7339836,15.5044596 15.6427318,15.6624322 15.9957836,15.8283594 C16.3488354,15.9941622 19.1748359,17.0606949 20.6424286,17.6253445 C22.1101433,18.1901184 24.167091,18.8162915 24.3793613,20.0204133 C24.5916316,21.2246593 23.31618,23.0345706 22.6081245,24.3909477 C21.899947,25.7472004 21.8811598,25.908156 21.9303236,26.457145 C21.9793653,27.0060097 24.3791173,28.4043968 24.9052792,28.7655836 C25.4314411,29.1268947 28.2790346,30.7170613 28.2790346,31.6026277 C28.2790346,32.4883184 25.5242788,34.8030958 24.6550687,35.3779371 C23.7858585,35.9527785 21.4222168,37.211215 20.415763,37.4032431 C19.4093091,37.5951469 17.8386311,36.4344023 16.9217211,34.6953363 C16.0049332,32.9562703 16.8293714,31.2416895 17.3881058,29.8942613 C17.9469621,28.5468332 16.9969917,27.7982344 16.5404886,27.3044301 C16.0842295,26.8107501 12.5302884,22.9659625 11.7165857,22.0856163 C10.902883,21.2052701 10.0936941,20.7583231 10.0936941,19.0648716 C10.0936941,17.37142 16.5271912,9.44793099 16.5271912,9.44793099 C16.5271912,9.44793099 21.9559424,10.5043962 22.6879088,10.5043962 C23.4198753,10.5043962 25.0058026,9.88294608 26.4697355,9.38578598 C27.9336684,8.88862589 28.9096237,8.88502148 28.9096237,8.88502148 Z" id="path-1"></path>
    </defs>
    <g id="Branding" stroke="none" stroke-width="1" fill="none" fill-rule="evenodd">
        <g id="logo_brave_alt" transform="translate(-45.000000, -40.000000)">
            <g id="Logo/Logotypes/brave/logo-light" transform="translate(46.000000, 42.000000)">
                <g id="Group-5" transform="translate(-3.910345, 0.000000)">
                    <g id="Group-4" transform="translate(66.475862, 11.494737)" fill="#FFFFFF" fill-rule="nonzero">
                        <path d="M0.0945649427,20.129113 L0.0945649427,0.0903119492 L1.980335,0.0903119492 C3.51668973,0.0903119492 4.76215132,1.35635643 4.76215132,2.91810143 L4.76215132,11.8279155 C7.78427094,9.08707118 10.3542945,7.98990542 13.7796349,7.9195212 C20.3492831,7.78289301 26.0513956,12.7429103 26.5930963,19.4004293 C27.2406934,27.353846 21.5507997,33.3406448 14.1380534,33.3406448 C6.00032431,33.3406448 0.0945649427,28.2108774 0.0945649427,20.129113 Z M4.6847655,21.7024073 C5.14500744,25.8426554 9.03466275,29.2625004 13.1361108,29.3287444 C18.4798048,29.4115493 22.1210109,25.8716372 22.1210109,20.6342233 C22.1210109,15.3968094 18.5612636,11.939674 13.3682682,11.939674 C7.81685444,11.9272814 4.05346019,16.0261271 4.6847655,21.7024073 L4.6847655,21.7024073 Z" id="Shape"></path>
                        <path d="M34.3805528,8.42049123 L34.3805528,11.9893851 C37.3171407,8.67718661 39.056285,7.78703326 42.4938443,7.78703326 C43.4937855,7.78812886 44.4920674,7.86980964 45.4793075,8.0313079 L45.4793075,12.771892 C44.4258391,12.4775227 43.3379356,12.329886 42.2453951,12.3330257 C39.7568303,12.3330257 37.6674134,13.1610754 36.1359889,14.7260892 C34.7919195,16.0965113 34.3927716,17.1688356 34.3927716,19.3217646 L34.3927716,32.5208757 L29.5541219,32.5208757 L29.5541219,8.42049123 L34.3805528,8.42049123 Z" id="Shape"></path>
                        <path d="M46.6278759,16.3904689 C46.876325,14.0429482 47.3243482,12.771892 48.3181449,11.5505188 C50.3098114,9.06636994 53.8939964,7.78703326 58.9688765,7.78703326 C63.0010846,7.78703326 65.9376725,8.42463147 67.9782142,9.79091336 C69.6725562,10.9129206 70.3690285,12.5773004 70.3690285,15.5085961 L70.3690285,26.2111375 C70.3690285,28.5586582 70.9677503,29.3867079 72.6091442,29.3411651 C72.975838,29.328014 73.3415719,29.2948442 73.7047643,29.2417992 L73.7047643,32.4670525 C72.8887802,32.75052 72.0292596,32.8823502 71.1673243,32.8562358 C68.1329858,32.8562358 66.7400412,31.9288202 65.7951197,29.2376589 C62.8096565,32.0240459 59.7223699,33.1957361 55.2950869,33.1957361 C49.3730357,33.1957361 45.7399755,30.4590321 45.7399755,26.0082654 C45.7140288,23.4702229 47.1828382,21.1621376 49.4707862,20.145674 C51.2628787,19.3631671 52.3584989,19.1188924 57.4822543,18.5806602 C61.8606621,18.1417939 62.6100826,18.0424279 63.8523285,17.6491043 C65.1963979,17.210238 65.7951197,16.4774141 65.7951197,15.2560409 C65.7951197,12.6642456 63.6568275,11.4925554 59.1765963,11.4925554 C54.9407413,11.4925554 52.7576468,12.3454465 51.8819652,14.523217 C51.4482406,15.6368477 50.3924291,16.3709249 49.2141912,16.3780482 L46.6278759,16.3904689 Z M65.7706821,20.4975951 C62.7009314,21.4052066 59.5487148,21.9947443 56.3621965,22.2572005 C52.0326639,22.6960668 50.6885945,23.5282567 50.6885945,25.7267285 C50.6885945,28.1694749 52.680261,29.4529518 56.6106457,29.4529518 C59.844558,29.4529518 62.2842476,28.6249022 64.0274648,27.0102054 C65.4204095,25.6894663 65.7706821,24.7620507 65.7706821,22.4559325 L65.7706821,20.4975951 Z" id="Shape"></path>
                        <path d="M85.3859491,32.5167935 L84.1396302,32.5167935 C83.0416911,32.5237809 82.0373317,31.8893056 81.5573878,30.8854777 L71.118449,8.42049123 L74.0183805,8.42049123 C75.7082351,8.40677493 77.2466325,9.40872492 77.9406193,10.9750243 L84.9053425,27.1219921 L92.102223,10.9129206 C92.8064623,9.37129713 94.3320539,8.39030838 96.0040971,8.40379017 L98.6392877,8.40379017 L87.9559726,30.9103192 C87.4710296,31.9004318 86.4739887,32.5236411 85.3859491,32.5167935 L85.3859491,32.5167935 Z" id="Shape"></path>
                        <path d="M101.909857,21.863877 C102.406755,26.5092354 105.982794,29.3908481 111.314269,29.3908481 C114.340462,29.3908481 116.609088,28.4758533 118.014251,26.6500038 C118.833823,25.6029814 120.078508,24.9932201 121.39479,24.9939046 L124.201043,24.9939046 C121.757281,30.4673126 117.382946,33.1584739 110.862173,33.1584739 C102.716298,33.1584739 97.2259784,28.1239322 97.2259784,20.596961 C97.2259784,13.0699899 102.850705,7.79117351 110.963997,7.79117351 C116.8331,7.79117351 121.553634,10.4781946 123.455696,14.9786443 C124.302867,17.0487684 124.649067,18.8870385 124.649067,21.8680172 L101.909857,21.863877 Z M119.724885,18.1376536 C118.629265,13.8856188 115.395353,11.4884151 110.915121,11.4884151 C106.43489,11.4884151 103.200978,13.8856188 102.056482,18.1376536 L119.724885,18.1376536 Z" id="Shape"></path>
                    </g>
                    <g id="Logo/Brave/One-Color-Alt">
                        <mask id="mask-2" fill="white">
                            <use xlink:href="#path-1"></use>
                        </mask>
                        <use id="Mask" fill="#FFFFFF" fill-rule="evenodd" xlink:href="#path-1"></use>
                    </g>
                </g>
            </g>
        </g>
    </g>
</svg>