<?xml version="1.0" encoding="UTF-8" standalone="no"?>
<svg xmlns="http://www.w3.org/2000/svg"
   version="1.0"
   width="217.11139"
   height="164.40642">
  <rect
     width="217.11099"
     height="164.40601"
     x="0"
     y="0.0004119873"
     style="fill:#000000" />
  <path
     d="M 22.08104,3.1781418 L 24.261704,3.1781418 L 24.261704,10.214275 L 24.036118,14.049236 L 22.306626,14.049236 L 22.08104,10.214275 L 22.08104,3.1781418 z M 22.08104,16.487712 L 24.261704,16.487712 L 24.261704,19.216228 L 22.08104,19.216228 L 22.08104,16.487712 z M 39.386704,3.1781418 L 39.386704,9.1400558 L 37.517563,9.1400558 L 37.517563,3.1781418 L 39.386704,3.1781418 z M 35.272446,3.1781418 L 35.272446,9.1400558 L 33.403305,9.1400558 L 33.403305,3.1781418 L 35.272446,3.1781418 z M 50.354477,3.4252118 L 49.23729,7.8832198 L 51.869126,7.8832198 L 52.997055,3.4252118 L 54.715805,3.4252118 L 53.587876,7.8832198 L 56.208969,7.8832198 L 56.208969,9.5375169 L 53.190415,9.5375169 L 52.288071,13.125408 L 54.973618,13.125408 L 54.973618,14.768962 L 51.869126,14.768962 L 50.751938,19.216228 L 49.033188,19.216228 L 50.161118,14.768962 L 47.51854,14.768962 L 46.39061,19.216228 L 44.682602,19.216228 L 45.79979,14.768962 L 43.028305,14.768962 L 43.028305,13.125408 L 46.218735,13.125408 L 47.121079,9.5375169 L 44.263657,9.5375169 L 44.263657,7.8832198 L 47.51854,7.8832198 L 48.635727,3.4252118 L 50.354477,3.4252118 z M 51.471665,9.5375169 L 48.839829,9.5375169 L 47.937485,13.125408 L 50.580063,13.125408 L 51.471665,9.5375169 z M 63.67479,12.985759 L 63.67479,17.647868 C 64.462542,17.626386 65.078427,17.407961 65.522446,16.992595 C 65.966447,16.577233 66.188452,16.011478 66.188462,15.295329 C 66.188452,14.629318 65.987931,14.111904 65.586899,13.743083 C 65.185849,13.374274 64.548479,13.121833 63.67479,12.985759 L 63.67479,12.985759 z M 62.600571,10.944743 L 62.600571,6.5082198 C 61.855774,6.5368788 61.273906,6.7517218 60.854966,7.1527508 C 60.436016,7.5538048 60.226544,8.0909138 60.226548,8.7640798 C 60.226544,9.3799746 60.421693,9.8669533 60.811997,10.225017 C 61.202291,10.583098 61.798482,10.823007 62.600571,10.944743 L 62.600571,10.944743 z M 63.67479,22.449626 L 62.600571,22.449626 L 62.589829,19.216228 C 61.859354,19.180421 61.134258,19.08016 60.414536,18.915447 C 59.694806,18.750734 58.984032,18.521567 58.282212,18.227947 L 58.282212,16.294353 C 58.998355,16.738366 59.719871,17.078535 60.446762,17.314861 C 61.173645,17.55119 61.891581,17.676516 62.600571,17.690837 L 62.600571,12.770915 C 61.168274,12.548917 60.090476,12.112068 59.367173,11.460368 C 58.643863,10.808684 58.28221,9.9457293 58.282212,8.8715008 C 58.28221,7.7471638 58.659976,6.8501918 59.415512,6.1805828 C 60.171042,5.5110008 61.232727,5.1260728 62.600571,5.0257978 L 62.600571,2.5013838 L 63.67479,2.5013838 L 63.685532,5.0257978 C 64.251279,5.0616198 64.824195,5.1332338 65.404282,5.2406418 C 65.98435,5.3480778 66.57517,5.4948878 67.176743,5.6810718 L 67.176743,7.5394698 C 66.568009,7.2315388 65.975399,6.9934208 65.398911,6.8251148 C 64.822405,6.6568328 64.247698,6.5583628 63.67479,6.5297048 L 63.67479,11.159587 C 65.150041,11.3816 66.274389,11.839933 67.047837,12.534587 C 67.821263,13.229255 68.207981,14.128017 68.207993,15.230876 C 68.207981,16.333744 67.790826,17.25399 66.956528,17.991618 C 66.122208,18.729249 65.031877,19.13029 63.685532,19.194743 L 63.67479,22.449626 z M 76.952134,15.78947 C 76.952126,16.348067 77.140114,16.817142 77.516098,17.196697 C 77.892066,17.576256 78.359351,17.766034 78.917954,17.766033 C 79.469376,17.766034 79.936661,17.574465 80.319809,17.191326 C 80.702936,16.80819 80.894505,16.340905 80.894516,15.78947 C 80.894505,15.238042 80.701146,14.768967 80.314438,14.382243 C 79.927709,13.99553 79.462215,13.802171 78.917954,13.802165 C 78.359351,13.802171 77.892066,13.991949 77.516098,14.371501 C 77.140114,14.751063 76.952126,15.223719 76.952134,15.78947 L 76.952134,15.78947 z M 75.501938,15.78947 C 75.501932,14.822678 75.831359,14.008062 76.490219,13.345622 C 77.149066,12.683194 77.95831,12.351977 78.917954,12.35197 C 79.376277,12.351977 79.811335,12.437914 80.22313,12.609783 C 80.634902,12.781664 81.005507,13.032315 81.334946,13.361736 C 81.664361,13.69833 81.918592,14.074306 82.097641,14.489665 C 82.276665,14.905034 82.366183,15.338302 82.366196,15.78947 C 82.366183,16.741946 82.033176,17.55119 81.367173,18.217204 C 80.701146,18.88322 79.88474,19.216228 78.917954,19.216228 C 77.943987,19.216228 77.131162,18.888591 76.479477,18.233318 C 75.827778,17.578046 75.501932,16.763431 75.501938,15.78947 L 75.501938,15.78947 z M 70.775376,14.221111 L 70.399399,13.189861 L 81.592759,8.6996258 L 82.033188,9.7308762 L 70.775376,14.221111 z M 71.280259,7.2709148 C 71.280257,7.8366818 71.468245,8.3075478 71.844223,8.6835128 C 72.220197,9.0594998 72.691063,9.2474878 73.256821,9.2474778 C 73.808249,9.2474878 74.277324,9.0559188 74.664048,8.6727708 C 75.050761,8.2896438 75.24412,7.8223588 75.244126,7.2709148 C 75.24412,6.7194958 75.050761,6.2522108 74.664048,5.8690598 C 74.277324,5.4859358 73.808249,5.2943668 73.256821,5.2943528 C 72.705385,5.2943668 72.238101,5.4841448 71.854966,5.8636888 C 71.471826,6.2432588 71.280257,6.7123338 71.280259,7.2709148 L 71.280259,7.2709148 z M 69.830063,7.2709148 C 69.830063,6.3041318 70.15949,5.4895158 70.818344,4.8270678 C 71.477197,4.1646478 72.290021,3.8334308 73.256821,3.8334148 C 73.71515,3.8334308 74.153789,3.9193678 74.572739,4.0912278 C 74.991679,4.2631178 75.362284,4.5101878 75.684555,4.8324388 C 76.006814,5.1547188 76.255675,5.5253238 76.431137,5.9442548 C 76.606586,6.3632138 76.694314,6.8054328 76.694321,7.2709148 C 76.694314,8.2305618 76.361306,9.0415958 75.695298,9.7040208 C 75.029276,10.366465 74.216452,10.697682 73.256821,10.697673 C 72.290021,10.697682 71.477197,10.368255 70.818344,9.7093919 C 70.15949,9.0505478 69.830063,8.2377228 69.830063,7.2709148 L 69.830063,7.2709148 z M 88.585923,9.4730637 L 93.054673,15.477947 C 93.333959,15.127039 93.541641,14.683029 93.677719,14.145915 C 93.813776,13.608812 93.88181,12.967862 93.881821,12.223064 C 93.88181,11.993904 93.871068,11.62867 93.849594,11.127361 L 93.838852,11.052165 L 95.600571,11.052165 L 95.600571,11.471111 C 95.600558,12.624112 95.468071,13.635667 95.20311,14.505779 C 94.938124,15.3759 94.537083,16.126062 93.999985,16.756267 L 95.826157,19.216228 L 93.538071,19.216228 L 92.70018,18.045329 C 92.10577,18.546632 91.475562,18.919028 90.809555,19.162517 C 90.143532,19.406006 89.430968,19.527751 88.67186,19.527751 C 87.124981,19.527751 85.846662,19.046143 84.836899,18.082927 C 83.827132,17.119713 83.32225,15.907637 83.322251,14.446697 C 83.32225,13.465583 83.56932,12.556078 84.063462,11.718181 C 84.5576,10.880299 85.302391,10.103281 86.297837,9.3871262 C 85.93976,8.8715118 85.674787,8.3666288 85.502915,7.8724778 C 85.331037,7.3783488 85.2451,6.8770478 85.245102,6.3685718 C 85.2451,5.2943668 85.601382,4.4457348 86.31395,3.8226728 C 87.026511,3.1996418 88.002258,2.8881188 89.241196,2.8881028 C 89.706684,2.8881188 90.173968,2.9310878 90.643051,3.0170088 C 91.112119,3.1029628 91.597307,3.2282878 92.098618,3.3929858 L 92.098618,5.3588058 C 91.676083,5.0795228 91.241025,4.8736318 90.793442,4.7411298 C 90.345843,4.6086578 89.874978,4.5424148 89.380844,4.5423998 C 88.686177,4.5424148 88.138326,4.7053378 87.73729,5.0311688 C 87.336243,5.3570298 87.135723,5.7956688 87.135727,6.3470868 C 87.135723,6.7696258 87.239564,7.2118448 87.447251,7.6737478 C 87.654928,8.1356728 88.034485,8.7354438 88.585923,9.4730637 L 88.585923,9.4730637 z M 87.178696,10.590251 C 86.519838,11.113046 86.027488,11.666268 85.701645,12.249919 C 85.375796,12.833584 85.212873,13.45484 85.212876,14.113689 C 85.212873,15.195073 85.570946,16.092045 86.287094,16.804607 C 87.003236,17.517174 87.916321,17.873456 89.026352,17.873454 C 89.327127,17.873456 89.642231,17.830487 89.971665,17.744548 C 90.301084,17.658612 90.62335,17.533287 90.938462,17.368572 C 91.131813,17.261152 91.291155,17.166262 91.416489,17.083904 C 91.541806,17.001549 91.66176,16.913821 91.776352,16.82072 L 87.178696,10.590251 z M 103.48534,3.1781418 L 103.48534,9.1400558 L 101.6162,9.1400558 L 101.6162,3.1781418 L 103.48534,3.1781418 z M 118.68554,2.5228688 C 117.73305,4.1556958 117.02228,5.7831358 116.55321,7.4051928 C 116.08413,9.0272728 115.84959,10.661874 115.8496,12.309001 C 115.84959,13.948981 116.08413,15.581791 116.55321,17.207439 C 117.02228,18.83309 117.73305,20.469482 118.68554,22.116618 L 116.96679,22.116618 C 115.8854,20.41219 115.07974,18.752524 114.54979,17.137615 C 114.01984,15.522709 113.75487,13.913173 113.75487,12.309001 C 113.75487,10.712005 114.01984,9.1042588 114.54979,7.4857588 C 115.07974,5.8672828 115.8854,4.2129878 116.96679,2.5228688 L 118.68554,2.5228688 z M 126.15136,2.5228688 L 127.87011,2.5228688 C 128.95148,4.2129878 129.75714,5.8672828 130.2871,7.4857588 C 130.81704,9.1042588 131.08201,10.712005 131.08202,12.309001 C 131.08201,13.920335 130.81704,15.535242 130.2871,17.153728 C 129.75714,18.772218 128.95148,20.426513 127.87011,22.116618 L 126.15136,22.116618 C 127.10383,20.455159 127.8146,18.811606 128.28368,17.185954 C 128.75275,15.560307 128.98729,13.934658 128.98729,12.309001 C 128.98729,10.676197 128.75275,9.0469668 128.28368,7.4213058 C 127.8146,5.7956688 127.10383,4.1628578 126.15136,2.5228688 L 126.15136,2.5228688 z M 147.10936,5.8207198 L 143.26366,7.9047048 L 147.10936,9.9994309 L 146.49706,11.052165 L 142.88768,8.8715008 L 142.88768,12.921306 L 141.65233,12.921306 L 141.65233,8.8715008 L 138.04296,11.052165 L 137.43065,9.9994309 L 141.27636,7.9047048 L 137.43065,5.8207198 L 138.04296,4.7572438 L 141.65233,6.9379078 L 141.65233,2.8881028 L 142.88768,2.8881028 L 142.88768,6.9379078 L 146.49706,4.7572438 L 147.10936,5.8207198 z M 156.40136,6.6371258 L 156.40136,11.406658 L 161.18163,11.406658 L 161.18163,13.232829 L 156.40136,13.232829 L 156.40136,18.002361 L 154.59667,18.002361 L 154.59667,13.232829 L 149.82714,13.232829 L 149.82714,11.406658 L 154.59667,11.406658 L 154.59667,6.6371258 L 156.40136,6.6371258 z M 167.50878,15.961345 L 170.21581,15.961345 L 170.21581,18.184978 L 168.0996,22.299236 L 166.4453,22.299236 L 167.50878,18.184978 L 167.50878,15.961345 z M 179.17479,12.309001 L 184.77147,12.309001 L 184.77147,14.07072 L 179.17479,14.07072 L 179.17479,12.309001 z M 193.83788,15.939861 L 196.54491,15.939861 L 196.54491,19.216228 L 193.83788,19.216228 L 193.83788,15.939861 z M 211.36913,3.1781418 L 213.41015,3.1781418 L 204.96679,21.257243 L 202.91503,21.257243 L 211.36913,3.1781418 z M 8.4921723,38.659587 C 8.4921671,38.265716 8.630025,37.925547 8.9057465,37.63908 C 9.1814567,37.352631 9.5126739,37.209402 9.8993988,37.209392 C 10.300434,37.209402 10.644183,37.352631 10.930649,37.63908 C 11.217099,37.925547 11.360328,38.265716 11.360336,38.659587 C 11.360328,39.060637 11.21889,39.400806 10.93602,39.680095 C 10.653135,39.959399 10.307595,40.099047 9.8993988,40.099041 C 9.498351,40.099047 9.1635531,39.96298 8.8950043,39.690837 C 8.6264443,39.418709 8.4921671,39.07496 8.4921723,38.659587 L 8.4921723,38.659587 z M 9.9208832,32.106853 C 8.911112,32.106868 8.1573692,32.651138 7.6596527,33.739666 C 7.1619275,34.828219 6.9130671,36.486095 6.9130707,38.713298 C 6.9130671,40.933356 7.1619275,42.587651 7.6596527,43.676189 C 8.1573692,44.764733 8.911112,45.309003 9.9208832,45.309001 C 10.937803,45.309003 11.695126,44.764733 12.192856,43.676189 C 12.690568,42.587651 12.939428,40.933356 12.939438,38.713298 C 12.939428,36.486095 12.690568,34.828219 12.192856,33.739666 C 11.695126,32.651138 10.937803,32.106868 9.9208832,32.106853 L 9.9208832,32.106853 z M 9.9208832,30.388103 C 11.632463,30.388119 12.926896,31.089942 13.804184,32.493572 C 14.681452,33.89723 15.12009,35.970471 15.120102,38.713298 C 15.12009,41.448981 14.681452,43.51864 13.804184,44.922283 C 12.926896,46.325929 11.632463,47.027751 9.9208832,47.027751 C 8.2092898,47.027751 6.9166478,46.325929 6.0429535,44.922283 C 5.1692537,43.51864 4.7324052,41.448981 4.7324066,38.713298 C 4.7324052,35.970471 5.1692537,33.89723 6.0429535,32.493572 C 6.9166478,31.089942 8.2092898,30.388119 9.9208832,30.388103 L 9.9208832,30.388103 z M 19.438462,44.890056 L 22.811509,44.890056 L 22.811509,32.63322 L 19.180649,33.449626 L 19.180649,31.473064 L 22.790024,30.678142 L 24.959946,30.678142 L 24.959946,44.890056 L 28.290024,44.890056 L 28.290024,46.716228 L 19.438462,46.716228 L 19.438462,44.890056 z M 33.779282,44.890056 L 41.148423,44.890056 L 41.148423,46.716228 L 31.405259,46.716228 L 31.405259,44.890056 C 32.744448,43.479252 33.915346,42.23316 34.917954,41.151775 C 35.920552,40.070401 36.611632,39.307707 36.991196,38.863689 C 37.707334,37.99 38.190732,37.282806 38.441391,36.742107 C 38.692033,36.201427 38.817359,35.648205 38.817368,35.082439 C 38.817359,34.187269 38.554175,33.485447 38.027817,32.97697 C 37.501442,32.468521 36.779926,32.214289 35.863266,32.214275 C 35.211568,32.214289 34.52765,32.332453 33.811509,32.568767 C 33.095359,32.805109 32.336246,33.163182 31.534165,33.642986 L 31.534165,31.45158 C 32.271792,31.100684 32.996889,30.83571 33.709458,30.656658 C 34.422018,30.477637 35.125631,30.388119 35.820298,30.388103 C 37.388649,30.388119 38.650855,30.805274 39.606919,31.639568 C 40.562963,32.473892 41.040989,33.567804 41.041001,34.921306 C 41.040989,35.608817 40.881647,36.296317 40.562973,36.983806 C 40.244278,37.671315 39.726863,38.430429 39.010727,39.26115 C 38.609677,39.726652 38.027809,40.371182 37.265122,41.194744 C 36.50242,42.018316 35.340474,43.250086 33.779282,44.890056 L 33.779282,44.890056 z M 51.342759,38.13322 C 52.395483,38.412525 53.201147,38.908456 53.759751,39.621013 C 54.318333,40.333585 54.59763,41.223395 54.597641,42.290447 C 54.59763,43.76571 54.101699,44.924075 53.109848,45.765544 C 52.117977,46.607016 50.744769,47.027751 48.990219,47.027751 C 48.252584,47.027751 47.500632,46.959717 46.73436,46.82365 C 45.968081,46.687582 45.216129,46.490642 44.478501,46.23283 L 44.478501,44.07365 C 45.208967,44.453209 45.928693,44.736087 46.63768,44.922283 C 47.34666,45.108482 48.052063,45.201581 48.753891,45.20158 C 49.942686,45.201581 50.855771,44.933027 51.493149,44.395916 C 52.13051,43.858809 52.449194,43.085372 52.449204,42.075603 C 52.449194,41.144619 52.13051,40.405199 51.493149,39.857341 C 50.855771,39.309497 49.992817,39.035572 48.904282,39.035564 L 47.249985,39.035564 L 47.249985,37.252361 L 48.904282,37.252361 C 49.899718,37.25237 50.676735,37.033946 51.235337,36.597087 C 51.793922,36.160249 52.073218,35.551526 52.073227,34.770916 C 52.073218,33.947361 51.813616,33.315362 51.294419,32.874919 C 50.775205,32.434504 50.035785,32.214289 49.076157,32.214275 C 48.438782,32.214289 47.779928,32.285904 47.099594,32.429119 C 46.419252,32.572362 45.706688,32.787205 44.961899,33.07365 L 44.961899,31.075603 C 45.828433,30.846452 46.600079,30.674577 47.276841,30.559978 C 47.953593,30.445411 48.553365,30.388119 49.076157,30.388103 C 50.637347,30.388119 51.88523,30.780209 52.819809,31.564373 C 53.754369,32.348567 54.221654,33.388767 54.221665,34.684978 C 54.221654,35.565849 53.976374,36.299897 53.485825,36.887126 C 52.995255,37.474375 52.2809,37.889739 51.342759,38.13322 L 51.342759,38.13322 z M 64.136704,32.654705 L 59.077134,41.130291 L 64.136704,41.130291 L 64.136704,32.654705 z M 63.782212,30.678142 L 66.295884,30.678142 L 66.295884,41.130291 L 68.433579,41.130291 L 68.433579,42.892009 L 66.295884,42.892009 L 66.295884,46.716228 L 64.136704,46.716228 L 64.136704,42.892009 L 57.336899,42.892009 L 57.336899,40.840251 L 63.782212,30.678142 z M 71.699204,30.678142 L 79.820298,30.678142 L 79.820298,32.504314 L 73.675766,32.504314 L 73.675766,36.446697 C 73.983705,36.332124 74.293437,36.247977 74.604966,36.194255 C 74.916484,36.140555 75.229797,36.1137 75.544907,36.113689 C 77.206358,36.1137 78.524065,36.604259 79.498032,37.585369 C 80.471979,38.566497 80.958958,39.894946 80.958969,41.57072 C 80.958958,43.260828 80.448705,44.592858 79.428208,45.566814 C 78.407691,46.540772 77.012998,47.027751 75.244126,47.027751 C 74.391907,47.027751 73.613099,46.97046 72.9077,46.855876 C 72.202294,46.741293 71.570295,46.569418 71.011704,46.340251 L 71.011704,44.138103 C 71.670556,44.496178 72.33299,44.762942 72.999009,44.938396 C 73.66502,45.113853 74.345358,45.201581 75.040024,45.20158 C 76.235981,45.201581 77.158018,44.886477 77.806137,44.256267 C 78.45424,43.626062 78.778296,42.73088 78.778305,41.57072 C 78.778296,40.424893 78.443498,39.533292 77.773911,38.895916 C 77.104307,38.258554 76.171528,37.93987 74.975571,37.939861 C 74.395488,37.93987 73.829733,38.006113 73.278305,38.138591 C 72.72687,38.271087 72.200503,38.469817 71.699204,38.734783 L 71.699204,30.678142 z M 93.355454,31.032634 L 93.355454,33.030681 C 92.904272,32.765721 92.424455,32.56341 91.916001,32.423748 C 91.407528,32.284114 90.877581,32.214289 90.326157,32.214275 C 88.951151,32.214289 87.90916,32.731704 87.20018,33.766521 C 86.491192,34.801364 86.1367,36.324962 86.136704,38.337322 C 86.48045,37.621185 86.956687,37.071544 87.565415,36.688396 C 88.174133,36.305268 88.872375,36.1137 89.660141,36.113689 C 91.207008,36.1137 92.404761,36.588146 93.253403,37.537029 C 94.102024,38.48593 94.52634,39.830493 94.526352,41.57072 C 94.52634,43.303797 94.089492,44.646569 93.215805,45.599041 C 92.342098,46.551515 91.113909,47.027751 89.531235,47.027751 C 87.669251,47.027751 86.304994,46.359946 85.438462,45.024333 C 84.571923,43.688725 84.138656,41.585048 84.138657,38.713298 C 84.138656,36.006278 84.659651,33.941989 85.701645,32.520427 C 86.743633,31.098893 88.252909,30.388119 90.229477,30.388103 C 90.759417,30.388119 91.289365,30.443621 91.819321,30.554607 C 92.349259,30.665626 92.861303,30.824968 93.355454,31.032634 L 93.355454,31.032634 z M 89.488266,37.810955 C 88.564432,37.810963 87.837545,38.143971 87.307602,38.809978 C 86.77765,39.476001 86.512677,40.396247 86.51268,41.57072 C 86.512677,42.745203 86.77765,43.66545 87.307602,44.331462 C 87.837545,44.99748 88.564432,45.330487 89.488266,45.330486 C 90.447894,45.330487 91.171201,45.013593 91.658188,44.379802 C 92.145158,43.746016 92.388647,42.809656 92.388657,41.57072 C 92.388647,40.324633 92.145158,39.386483 91.658188,38.756267 C 91.171201,38.126067 90.447894,37.810963 89.488266,37.810955 L 89.488266,37.810955 z M 97.437485,30.678142 L 107.53515,30.678142 L 107.53515,31.60197 L 101.79881,46.716228 L 99.532212,46.716228 L 105.11815,32.504314 L 97.437485,32.504314 L 97.437485,30.678142 z M 115.79589,39.100017 C 114.82908,39.100025 114.0825,39.370369 113.55614,39.911052 C 113.02977,40.451749 112.76659,41.216234 112.76659,42.204509 C 112.76659,43.192794 113.03335,43.96086 113.56688,44.508708 C 114.10041,45.056562 114.84341,45.330487 115.79589,45.330486 C 116.76984,45.330487 117.52,45.060142 118.04638,44.519451 C 118.57273,43.978763 118.83592,43.207117 118.83593,42.204509 C 118.83592,41.223395 118.56915,40.4607 118.03563,39.916423 C 117.5021,39.37216 116.75552,39.100025 115.79589,39.100017 L 115.79589,39.100017 z M 113.90526,38.197673 C 112.98143,37.961354 112.25991,37.520925 111.74071,36.876384 C 111.2215,36.231863 110.9619,35.454846 110.9619,34.54533 C 110.9619,33.270603 111.39517,32.259048 112.26171,31.510662 C 113.12824,30.762305 114.3063,30.388119 115.79589,30.388103 C 117.29262,30.388119 118.47426,30.762305 119.34081,31.510662 C 120.20733,32.259048 120.6406,33.270603 120.64061,34.54533 C 120.6406,35.454846 120.381,36.231863 119.86181,36.876384 C 119.34259,37.520925 118.62107,37.961354 117.69725,38.197673 C 118.77146,38.43401 119.59324,38.910246 120.16259,39.626384 C 120.73191,40.342536 121.01658,41.269944 121.01659,42.408611 C 121.01658,43.855228 120.55467,44.986738 119.63085,45.803142 C 118.70701,46.619548 117.42869,47.027751 115.79589,47.027751 C 114.16307,47.027751 112.88654,46.621339 111.9663,45.808513 C 111.04605,44.995689 110.58593,43.869551 110.58593,42.430095 C 110.58593,41.284267 110.87059,40.351488 111.43993,39.631755 C 112.00926,38.912037 112.83104,38.43401 113.90526,38.197673 L 113.90526,38.197673 z M 113.12108,34.749431 C 113.12108,35.608817 113.35025,36.26409 113.80858,36.715251 C 114.26691,37.166433 114.92935,37.392019 115.79589,37.392009 C 116.66958,37.392019 117.33559,37.166433 117.79393,36.715251 C 118.25226,36.26409 118.48143,35.608817 118.48143,34.749431 C 118.48143,33.875746 118.25405,33.209731 117.79931,32.751384 C 117.34454,32.293065 116.67674,32.063899 115.79589,32.063884 C 114.92935,32.063899 114.26691,32.294856 113.80858,32.756755 C 113.35025,33.218683 113.12108,33.882908 113.12108,34.749431 L 113.12108,34.749431 z M 128.81542,39.6049 C 129.73924,39.604907 130.46434,39.2719 130.99071,38.605876 C 131.51707,37.93987 131.78025,37.019623 131.78026,35.845134 C 131.78025,34.670667 131.51707,33.750421 130.99071,33.084392 C 130.46434,32.418391 129.73924,32.085383 128.81542,32.085369 C 127.85578,32.085383 127.13247,32.402277 126.6455,33.036052 C 126.15851,33.669854 125.91502,34.606214 125.91503,35.845134 C 125.91502,37.091238 126.15672,38.029388 126.64013,38.659587 C 127.12352,39.289803 127.84862,39.604907 128.81542,39.6049 L 128.81542,39.6049 z M 124.94823,46.38322 L 124.94823,44.385173 C 125.3994,44.650149 125.87922,44.85246 126.38768,44.992107 C 126.89614,45.131757 127.42609,45.201581 127.97753,45.20158 C 129.35252,45.201581 130.39272,44.684166 131.09813,43.649333 C 131.80353,42.614507 132.15623,41.090908 132.15624,39.078533 C 131.81964,39.794685 131.34699,40.344327 130.73827,40.727458 C 130.12954,41.110602 129.4313,41.302171 128.64354,41.302166 C 127.09666,41.302171 125.89891,40.825934 125.05028,39.873455 C 124.20165,38.920988 123.77733,37.571055 123.77733,35.82365 C 123.77733,34.097751 124.21239,32.76035 125.08251,31.811443 C 125.95262,30.862565 127.1826,30.388119 128.77245,30.388103 C 130.63442,30.388119 131.99868,31.057715 132.86522,32.396892 C 133.73175,33.736098 134.16502,35.841564 134.16503,38.713298 C 134.16502,41.413173 133.64402,43.473881 132.60204,44.895427 C 131.56004,46.316977 130.04718,47.027751 128.06347,47.027751 C 127.54067,47.027751 127.01431,46.97225 126.48436,46.861248 C 125.95441,46.750245 125.44237,46.590903 124.94823,46.38322 L 124.94823,46.38322 z M 140.90038,35.297283 L 143.60741,35.297283 L 143.60741,38.552166 L 140.90038,38.552166 L 140.90038,35.297283 z M 140.90038,43.439861 L 143.60741,43.439861 L 143.60741,46.716228 L 140.90038,46.716228 L 140.90038,43.439861 z M 154.2744,43.461345 L 156.98143,43.461345 L 156.98143,45.684978 L 154.86522,49.799236 L 153.21093,49.799236 L 154.2744,45.684978 L 154.2744,43.461345 z M 154.13475,35.297283 L 156.84179,35.297283 L 156.84179,38.552166 L 154.13475,38.552166 L 154.13475,35.297283 z M 174.416,36.392986 L 165.28515,39.830486 L 174.416,43.235759 L 174.416,45.20158 L 163.06151,40.711345 L 163.06151,38.928142 L 174.416,34.437908 L 174.416,36.392986 z M 176.29589,41.087322 L 187.65038,41.087322 L 187.65038,42.934978 L 176.29589,42.934978 L 176.29589,41.087322 z M 176.29589,36.725994 L 187.65038,36.725994 L 187.65038,38.552166 L 176.29589,38.552166 L 176.29589,36.725994 z M 189.53026,36.392986 L 189.53026,34.437908 L 200.88475,38.928142 L 200.88475,40.711345 L 189.53026,45.20158 L 189.53026,43.235759 L 198.66112,39.830486 L 189.53026,36.392986 z M 209.16698,42.408611 L 207.12597,42.408611 L 207.12597,40.754314 C 207.12596,40.052498 207.23517,39.456307 207.4536,38.96574 C 207.67202,38.475188 208.08201,37.936289 208.68358,37.349041 L 209.65038,36.392986 C 210.09438,35.970471 210.40053,35.601656 210.56884,35.286541 C 210.73712,34.971448 210.82127,34.638441 210.82128,34.287517 C 210.82127,33.65016 210.58673,33.134536 210.11766,32.740642 C 209.64858,32.346776 209.02374,32.149836 208.24315,32.149822 C 207.68455,32.149836 207.08657,32.273371 206.44921,32.520427 C 205.81183,32.767511 205.14224,33.134536 204.44042,33.621501 L 204.44042,31.60197 C 205.11359,31.193783 205.79214,30.889421 206.47606,30.688884 C 207.15998,30.48838 207.87433,30.388119 208.61913,30.388103 C 209.95115,30.388119 211.01284,30.731869 211.80419,31.419353 C 212.59552,32.106868 212.99119,33.027114 212.9912,34.180095 C 212.99119,34.724378 212.87123,35.231051 212.63134,35.700115 C 212.39142,36.169201 211.93487,36.733165 211.26171,37.392009 L 210.3164,38.315837 C 209.82225,38.788502 209.50714,39.17522 209.37108,39.475994 C 209.23501,39.776782 209.16697,40.145597 209.16698,40.582439 L 209.16698,41.087322 L 209.16698,42.408611 z M 207.05077,43.987712 L 209.23143,43.987712 L 209.23143,46.716228 L 207.05077,46.716228 L 207.05077,43.987712 z M 14.454087,68.361736 C 14.454075,67.437914 14.224909,66.698495 13.766587,66.143474 C 13.308243,65.58847 12.695939,65.310963 11.929672,65.310955 C 11.163388,65.310963 10.549294,65.58847 10.087387,66.143474 C 9.6254667,66.698495 9.3945099,67.437914 9.394516,68.361736 C 9.3945099,69.29273 9.6254667,70.035731 10.087387,70.59074 C 10.549294,71.145756 11.163388,71.423262 11.929672,71.423259 C 12.695939,71.423262 13.308243,71.145756 13.766587,70.59074 C 14.224909,70.035731 14.454075,69.29273 14.454087,68.361736 L 14.454087,68.361736 z M 15.957993,72.766033 L 14.411118,72.766033 L 14.411118,71.57365 C 14.146133,72.024824 13.779109,72.372154 13.310044,72.615642 C 12.840958,72.859133 12.312801,72.980878 11.725571,72.980876 C 10.572569,72.980878 9.6183053,72.54761 8.8627777,71.681072 C 8.1072391,70.814539 7.7294725,69.708094 7.729477,68.361736 C 7.7294725,67.015389 8.1072391,65.908945 8.8627777,65.0424 C 9.6183053,64.175873 10.572569,63.742606 11.725571,63.742595 C 12.298478,63.742606 12.824845,63.867931 13.304673,64.118572 C 13.78448,64.369233 14.153295,64.712982 14.411118,65.149822 L 14.411118,64.473064 C 14.411107,63.355887 14.096003,62.457125 13.465805,61.776775 C 12.835587,61.096449 12.001278,60.756281 10.962875,60.756267 C 9.2011507,60.756281 7.7992967,61.441989 6.757309,62.813396 C 5.7153144,64.184825 5.1943188,66.041431 5.1943207,68.38322 C 5.1943188,70.739343 5.7851385,72.615644 6.9667816,74.012126 C 8.1484174,75.40861 9.7203559,76.106851 11.682602,76.106853 C 12.069312,76.106851 12.45603,76.071044 12.842758,75.999431 C 13.229467,75.927815 13.626928,75.816812 14.035141,75.666423 L 14.550766,77.116619 C 14.099584,77.295652 13.653783,77.428139 13.213364,77.51408 C 12.772925,77.600014 12.345028,77.642982 11.929672,77.642986 C 9.3730256,77.642982 7.3445445,76.808673 5.844223,75.140056 C 4.3438965,73.471437 3.5937345,71.219161 3.5937348,68.38322 C 3.5937345,65.59026 4.2669109,63.366629 5.613266,61.712322 C 6.9596165,60.058039 8.7643022,59.230891 11.027328,59.230876 C 12.524064,59.230891 13.720027,59.707128 14.615219,60.659587 C 15.51039,61.612074 15.95798,62.890393 15.957993,64.494548 L 15.957993,72.766033 z M 23.155259,60.090251 L 20.867173,68.297283 L 25.443344,68.297283 L 23.155259,60.090251 z M 21.844712,58.178142 L 24.476548,58.178142 L 29.385727,74.216228 L 27.14061,74.216228 L 25.958969,70.037517 L 20.340805,70.037517 L 19.180649,74.216228 L 16.935532,74.216228 L 21.844712,58.178142 z M 33.736313,66.557048 L 33.736313,72.433025 L 36.303696,72.433025 C 37.564105,72.433027 38.462867,72.212812 38.999985,71.77238 C 39.537085,71.331954 39.805639,70.606857 39.805649,69.597087 C 39.805639,68.55152 39.522762,67.783454 38.957016,67.292888 C 38.391252,66.802336 37.506813,66.557056 36.303696,66.557048 L 33.736313,66.557048 z M 33.736313,59.961345 L 33.736313,64.79533 L 36.260727,64.79533 C 37.306293,64.795339 38.063616,64.594818 38.5327,64.193767 C 39.001766,63.792736 39.236304,63.144624 39.236313,62.249431 C 39.236304,61.440199 39.005347,60.856541 38.543442,60.498455 C 38.08152,60.140396 37.320616,59.961359 36.260727,59.961345 L 33.736313,59.961345 z M 31.555649,58.178142 L 36.303696,58.178142 C 37.943662,58.178158 39.207658,58.53265 40.095688,59.241619 C 40.983698,59.950617 41.427708,60.95322 41.427719,62.249431 C 41.427708,63.230562 41.19317,64.003999 40.724106,64.569744 C 40.25502,65.135508 39.551408,65.49 38.613266,65.63322 C 39.665991,65.790781 40.491348,66.240162 41.089341,66.981365 C 41.68731,67.722582 41.986301,68.666103 41.986313,69.811931 C 41.986301,71.26571 41.510064,72.363203 40.557602,73.104412 C 39.605118,73.845623 38.187151,74.216228 36.303696,74.216228 L 31.555649,74.216228 L 31.555649,58.178142 z M 54.533188,73.646892 C 53.981745,73.940512 53.41599,74.160727 52.835923,74.307537 C 52.255835,74.454346 51.63995,74.527751 50.988266,74.527751 C 48.932922,74.527751 47.337709,73.800864 46.202622,72.347087 C 45.067529,70.893315 44.499984,68.84872 44.499985,66.213298 C 44.499984,63.592215 45.071109,61.549411 46.213364,60.08488 C 47.355612,58.620378 48.947245,57.888119 50.988266,57.888103 C 51.63995,57.888119 52.255835,57.961524 52.835923,58.108318 C 53.41599,58.255144 53.981745,58.475358 54.533188,58.768962 L 54.533188,60.992595 C 54.003229,60.55576 53.433894,60.222752 52.82518,59.993572 C 52.216447,59.76442 51.604143,59.649836 50.988266,59.649822 C 49.577452,59.649836 48.521138,60.194107 47.819321,61.282634 C 47.117494,62.371188 46.766583,64.014741 46.766587,66.213298 C 46.766583,68.40471 47.117494,70.044683 47.819321,71.13322 C 48.521138,72.221764 49.577452,72.766034 50.988266,72.766033 C 51.618466,72.766034 52.236141,72.651451 52.841294,72.422283 C 53.446426,72.193118 54.010391,71.860111 54.533188,71.423259 L 54.533188,73.646892 z M 60.92479,72.433025 C 62.750955,72.433027 64.025693,71.983646 64.749009,71.08488 C 65.472307,70.186121 65.83396,68.562262 65.833969,66.213298 C 65.83396,63.842866 65.474097,62.208265 64.75438,61.30949 C 64.034645,60.410741 62.758117,59.961359 60.92479,59.961345 L 59.89354,59.961345 L 59.89354,72.433025 L 60.92479,72.433025 z M 60.967759,58.178142 C 63.41697,58.178158 65.221656,58.82985 66.381821,60.13322 C 67.541966,61.436618 68.122043,63.463309 68.122055,66.213298 C 68.122043,68.948981 67.541966,70.96672 66.381821,72.266521 C 65.221656,73.566326 63.41697,74.216228 60.967759,74.216228 L 57.712876,74.216228 L 57.712876,58.178142 L 60.967759,58.178142 z M 71.591782,58.178142 L 81.10936,58.178142 L 81.10936,60.004314 L 73.761704,60.004314 L 73.761704,64.752361 L 80.787094,64.752361 L 80.787094,66.578533 L 73.761704,66.578533 L 73.761704,72.390056 L 81.313462,72.390056 L 81.313462,74.216228 L 71.591782,74.216228 L 71.591782,58.178142 z M 85.212876,58.178142 L 94.655259,58.178142 L 94.655259,60.004314 L 87.39354,60.004314 L 87.39354,64.730876 L 93.978501,64.730876 L 93.978501,66.557048 L 87.39354,66.557048 L 87.39354,74.216228 L 85.212876,74.216228 L 85.212876,58.178142 z M 107.8037,72.894939 C 107.22361,73.432049 106.57013,73.838461 105.84325,74.114177 C 105.11635,74.389893 104.33038,74.527751 103.48534,74.527751 C 101.45148,74.527751 99.868796,73.799073 98.73729,72.341716 C 97.605778,70.884363 97.040023,68.841559 97.040024,66.213298 C 97.040023,63.592215 97.612939,61.549411 98.758774,60.08488 C 99.904603,58.620378 101.49803,57.888119 103.53905,57.888103 C 104.21222,57.888119 104.85675,57.983009 105.47265,58.172771 C 106.08852,58.362565 106.68292,58.650814 107.25585,59.037517 L 107.25585,61.26115 C 106.67576,60.709731 106.08136,60.303319 105.47265,60.041912 C 104.86391,59.780533 104.21938,59.649836 103.53905,59.649822 C 102.12823,59.649836 101.07013,60.195897 100.36473,61.288005 C 99.659324,62.38014 99.306622,64.021902 99.306626,66.213298 C 99.306622,68.440518 99.648582,70.089442 100.3325,71.160076 C 101.01642,72.230716 102.06736,72.766034 103.48534,72.766033 C 103.96515,72.766034 104.38589,72.710533 104.74755,72.599529 C 105.10919,72.488528 105.43683,72.314863 105.73046,72.078533 L 105.73046,67.770916 L 103.3994,67.770916 L 103.3994,65.987712 L 107.8037,65.987712 L 107.8037,72.894939 z M 110.65038,58.178142 L 112.83104,58.178142 L 112.83104,64.752361 L 118.77147,64.752361 L 118.77147,58.178142 L 120.95214,58.178142 L 120.95214,74.216228 L 118.77147,74.216228 L 118.77147,66.578533 L 112.83104,66.578533 L 112.83104,74.216228 L 110.65038,74.216228 L 110.65038,58.178142 z M 124.57225,58.178142 L 133.47753,58.178142 L 133.47753,60.004314 L 130.11522,60.004314 L 130.11522,72.390056 L 133.47753,72.390056 L 133.47753,74.216228 L 124.57225,74.216228 L 124.57225,72.390056 L 127.93456,72.390056 L 127.93456,60.004314 L 124.57225,60.004314 L 124.57225,58.178142 z M 136.81835,73.560955 L 136.81835,71.025798 C 137.47004,71.605879 138.14322,72.040937 138.83788,72.330974 C 139.53254,72.621015 140.25226,72.766034 140.99706,72.766033 C 142.02114,72.766034 142.7355,72.49927 143.14013,71.96574 C 143.54474,71.432214 143.74705,70.438563 143.74706,68.984783 L 143.74706,60.004314 L 139.65429,60.004314 L 139.65429,58.178142 L 145.91698,58.178142 L 145.91698,68.984783 C 145.91697,71.004317 145.5392,72.433027 144.78368,73.270916 C 144.02814,74.108806 142.76593,74.527751 140.99706,74.527751 C 140.30955,74.527751 139.62564,74.448975 138.9453,74.291423 C 138.26496,74.133871 137.55598,73.890382 136.81835,73.560955 L 136.81835,73.560955 z M 150.3535,58.178142 L 152.53417,58.178142 L 152.53417,65.310955 L 159.31249,58.178142 L 161.85839,58.178142 L 155.61718,64.730876 L 162.041,74.216228 L 159.41991,74.216228 L 154.18847,66.181072 L 152.53417,67.942791 L 152.53417,74.216228 L 150.3535,74.216228 L 150.3535,58.178142 z M 164.42577,58.178142 L 166.60643,58.178142 L 166.60643,72.390056 L 174.35155,72.390056 L 174.35155,74.216228 L 164.42577,74.216228 L 164.42577,58.178142 z M 176.2744,58.178142 L 179.17479,58.178142 L 181.94628,66.342205 L 184.73925,58.178142 L 187.65038,58.178142 L 187.65038,74.216228 L 185.64159,74.216228 L 185.64159,60.047283 L 182.78417,68.501384 L 181.14061,68.501384 L 178.27245,60.047283 L 178.27245,74.216228 L 176.2744,74.216228 L 176.2744,58.178142 z M 190.07811,58.178142 L 192.82811,58.178142 L 198.24218,71.380291 L 198.24218,58.178142 L 200.3369,58.178142 L 200.3369,74.216228 L 197.5869,74.216228 L 192.17284,61.01408 L 192.17284,74.216228 L 190.07811,74.216228 L 190.07811,58.178142 z M 211.541,66.213298 C 211.54099,63.857189 211.2993,62.174248 210.81591,61.16447 C 210.3325,60.154719 209.53937,59.649836 208.43651,59.649822 C 207.3408,59.649836 206.55125,60.154719 206.06786,61.16447 C 205.58446,62.174248 205.34276,63.857189 205.34276,66.213298 C 205.34276,68.562262 205.58446,70.241623 206.06786,71.251384 C 206.55125,72.261152 207.3408,72.766034 208.43651,72.766033 C 209.53937,72.766034 210.3325,72.262942 210.81591,71.256755 C 211.2993,70.250574 211.54099,68.569424 211.541,66.213298 L 211.541,66.213298 z M 213.80761,66.213298 C 213.80759,69.006272 213.36537,71.090255 212.48095,72.465251 C 211.5965,73.840252 210.24835,74.527751 208.43651,74.527751 C 206.62466,74.527751 205.27831,73.843833 204.39745,72.475994 C 203.51659,71.108158 203.07616,69.020595 203.07616,66.213298 C 203.07616,63.413179 203.51838,61.325616 204.40282,59.950603 C 205.28726,58.575619 206.63182,57.888119 208.43651,57.888103 C 210.24835,57.888119 211.5965,58.575619 212.48095,59.950603 C 213.36537,61.325616 213.80759,63.413179 213.80761,66.213298 L 213.80761,66.213298 z M 7.5898285,87.461345 L 7.5898285,93.487712 L 10.1035,93.487712 C 11.106097,93.487721 11.888485,93.222747 12.450668,92.692791 C 13.012833,92.162852 13.29392,91.421642 13.29393,90.469158 C 13.29392,89.516696 13.014624,88.777276 12.45604,88.250896 C 11.897437,87.724543 11.113258,87.461359 10.1035,87.461345 L 7.5898285,87.461345 z M 5.4199066,85.678142 L 10.1035,85.678142 C 11.893856,85.678158 13.250951,86.08457 14.17479,86.89738 C 15.098606,87.71022 15.56052,88.900811 15.560532,90.469158 C 15.56052,92.05185 15.100396,93.247812 14.180161,94.057048 C 13.259903,94.8663 11.901018,95.270922 10.1035,95.270916 L 7.5898285,95.270916 L 7.5898285,101.71623 L 5.4199066,101.71623 L 5.4199066,85.678142 z M 23.574204,102.00627 C 23.524067,102.00627 23.452452,102.00985 23.35936,102.01701 C 23.266254,102.02417 23.191059,102.02775 23.133774,102.02775 C 21.343405,102.02775 20.006004,101.34025 19.121567,99.965251 C 18.237125,98.590255 17.794906,96.506272 17.794907,93.713298 C 17.794906,90.913179 18.237125,88.825616 19.121567,87.450603 C 20.006004,86.075619 21.350566,85.388119 23.155259,85.388103 C 24.967099,85.388119 26.315242,86.075619 27.199692,87.450603 C 28.084121,88.825616 28.52634,90.913179 28.526352,93.713298 C 28.52634,95.818773 28.281061,97.514247 27.790512,98.799724 C 27.299942,100.08521 26.556941,100.98576 25.561509,101.50138 L 27.709946,103.5424 L 26.087876,104.61662 L 23.574204,102.00627 z M 26.259751,93.713298 C 26.259741,91.357189 26.018042,89.674248 25.534653,88.66447 C 25.051246,87.654719 24.258115,87.149836 23.155259,87.149822 C 22.05955,87.149836 21.27,87.654719 20.786606,88.66447 C 20.303204,89.674248 20.061505,91.357189 20.061509,93.713298 C 20.061505,96.062262 20.303204,97.741623 20.786606,98.751384 C 21.27,99.761152 22.05955,100.26603 23.155259,100.26603 C 24.258115,100.26603 25.051246,99.762942 25.534653,98.756755 C 26.018042,97.750574 26.259741,96.069424 26.259751,93.713298 L 26.259751,93.713298 z M 37.936509,94.142986 C 38.495094,94.286222 38.97133,94.556567 39.365219,94.954021 C 39.75909,95.351488 40.249649,96.144619 40.836899,97.333416 L 43.017563,101.71623 L 40.686509,101.71623 L 38.774399,97.666423 C 38.222958,96.513434 37.727028,95.770433 37.286606,95.437419 C 36.846169,95.104418 36.271463,94.937914 35.562485,94.937908 L 33.489243,94.937908 L 33.489243,101.71623 L 31.308579,101.71623 L 31.308579,85.678142 L 35.777329,85.678142 C 37.53904,85.678158 38.888973,86.075619 39.827134,86.870525 C 40.765274,87.665461 41.234349,88.814874 41.23436,90.318767 C 41.234349,91.378673 40.9461,92.243418 40.369614,92.913005 C 39.793107,93.58261 38.982072,93.992603 37.936509,94.142986 L 37.936509,94.142986 z M 33.489243,87.461345 L 33.489243,93.154705 L 35.863266,93.154705 C 36.901671,93.154713 37.675107,92.921966 38.183579,92.456462 C 38.692033,91.990977 38.946265,91.278413 38.946274,90.318767 C 38.946265,89.394951 38.67592,88.687758 38.135239,88.197185 C 37.594541,87.706639 36.808572,87.461359 35.777329,87.461345 L 33.489243,87.461345 z M 53.877915,86.225994 L 53.877915,88.428142 C 53.21905,88.00563 52.558407,87.686945 51.895981,87.472087 C 51.233538,87.257258 50.565733,87.149836 49.892563,87.149822 C 48.868469,87.149836 48.059225,87.387955 47.464829,87.864177 C 46.870424,88.340428 46.573224,88.983168 46.573227,89.7924 C 46.573224,90.501395 46.768373,91.042085 47.158676,91.41447 C 47.548971,91.786876 48.277649,92.098399 49.344712,92.349041 L 50.483384,92.606853 C 51.987281,92.957773 53.082983,93.509205 53.770493,94.26115 C 54.457981,95.01311 54.801731,96.037197 54.801743,97.333416 C 54.801731,98.858809 54.329075,100.02254 53.383774,100.82463 C 52.438452,101.62671 51.063454,102.02775 49.258774,102.02775 C 48.506816,102.02775 47.751282,101.94718 46.992173,101.78605 C 46.233055,101.62492 45.47036,101.38322 44.704087,101.06095 L 44.704087,98.751384 C 45.527652,99.274173 46.30646,99.657311 47.040512,99.900798 C 47.774557,100.14429 48.513977,100.26603 49.258774,100.26603 C 50.35447,100.26603 51.206683,100.02075 51.815415,99.530193 C 52.424129,99.039636 52.728491,98.353927 52.728501,97.473064 C 52.728491,96.670986 52.519019,96.058682 52.100083,95.63615 C 51.681129,95.21363 50.952451,94.887784 49.914048,94.658611 L 48.753891,94.390056 C 47.264304,94.053475 46.182925,93.545012 45.509751,92.864666 C 44.836572,92.184336 44.499984,91.271251 44.499985,90.125408 C 44.499984,88.693129 44.981591,87.545506 45.944809,86.682537 C 46.908022,85.819597 48.188131,85.388119 49.785141,85.388103 C 50.401019,85.388119 51.049131,85.457943 51.729477,85.597576 C 52.409806,85.73724 53.125952,85.946713 53.877915,86.225994 L 53.877915,86.225994 z M 56.746079,85.678142 L 68.98143,85.678142 L 68.98143,87.504314 L 63.964829,87.504314 L 63.964829,101.71623 L 61.784165,101.71623 L 61.784165,87.504314 L 56.746079,87.504314 L 56.746079,85.678142 z M 71.054673,95.560955 L 71.054673,85.678142 L 73.235337,85.678142 L 73.235337,96.549236 C 73.235333,97.329839 73.256817,97.886642 73.29979,98.219646 C 73.342755,98.552657 73.41795,98.808679 73.525376,98.987712 C 73.754538,99.410241 74.085755,99.728925 74.519028,99.943767 C 74.952291,100.15861 75.476867,100.26603 76.092759,100.26603 C 76.715798,100.26603 77.242165,100.15861 77.67186,99.943767 C 78.101539,99.728925 78.434546,99.410241 78.670884,98.987712 C 78.778296,98.808679 78.853491,98.554447 78.896469,98.225017 C 78.939429,97.895594 78.960913,97.344162 78.960923,96.57072 L 78.960923,95.560955 L 78.960923,85.678142 L 81.130844,85.678142 L 81.130844,95.560955 C 81.130833,97.200933 81.028782,98.366459 80.824692,99.057537 C 80.620579,99.748619 80.267878,100.31974 79.766587,100.77092 C 79.293921,101.19344 78.753231,101.50855 78.144516,101.71623 C 77.535784,101.92391 76.851866,102.02775 76.092759,102.02775 C 75.3408,102.02775 74.660462,101.92391 74.051743,101.71623 C 73.443015,101.50855 72.898745,101.19344 72.41893,100.77092 C 71.924787,100.32691 71.573876,99.7522 71.366196,99.046794 C 71.158512,98.341394 71.054671,97.179449 71.054673,95.560955 L 71.054673,95.560955 z M 89.327134,99.890056 L 93.097641,85.678142 L 95.342759,85.678142 L 90.648423,101.71623 L 88.016587,101.71623 L 83.322251,85.678142 L 85.567368,85.678142 L 89.327134,99.890056 z M 95.944321,85.678142 L 98.060532,85.678142 L 99.596665,98.697673 L 101.42284,90.082439 L 103.68944,90.082439 L 105.5371,98.719158 L 107.07323,85.678142 L 109.18944,85.678142 L 106.79393,101.71623 L 104.74218,101.71623 L 102.56151,92.187908 L 100.39159,101.71623 L 98.339829,101.71623 L 95.944321,85.678142 z M 110.10253,85.678142 L 112.43358,85.678142 L 115.95702,91.725994 L 119.54491,85.678142 L 121.87597,85.678142 L 117.07421,93.219158 L 122.21972,101.71623 L 119.88866,101.71623 L 115.95702,94.809001 L 111.71386,101.71623 L 109.37206,101.71623 L 114.74315,93.219158 L 110.10253,85.678142 z M 122.81054,85.678142 L 125.12011,85.678142 L 129.03026,92.757244 L 132.92968,85.678142 L 135.26073,85.678142 L 130.11522,94.518962 L 130.11522,101.71623 L 127.93456,101.71623 L 127.93456,94.518962 L 122.81054,85.678142 z M 137.55956,85.678142 L 147.96874,85.678142 L 147.96874,87.332439 L 139.58983,99.890056 L 148.20507,99.890056 L 148.20507,101.71623 L 137.32323,101.71623 L 137.32323,100.06193 L 145.47655,87.504314 L 137.55956,87.504314 L 137.55956,85.678142 z M 153.85546,85.001384 L 158.41015,85.001384 L 158.41015,86.537517 L 155.83202,86.537517 L 155.83202,103.08049 L 158.41015,103.08049 L 158.41015,104.61662 L 153.85546,104.61662 L 153.85546,85.001384 z M 165.26366,85.678142 L 173.70702,103.75724 L 171.666,103.75724 L 163.2119,85.678142 L 165.26366,85.678142 z M 183.62206,85.001384 L 183.62206,104.61662 L 179.06737,104.61662 L 179.06737,103.08049 L 181.6455,103.08049 L 181.6455,86.537517 L 179.06737,86.537517 L 179.06737,85.001384 L 183.62206,85.001384 z M 196.15819,85.678142 L 201.05663,91.661541 L 199.14452,91.661541 L 195.20214,87.418376 L 191.2705,91.661541 L 189.35839,91.661541 L 194.25683,85.678142 L 196.15819,85.678142 z M 212.81933,106.04533 L 212.81933,106.9047 L 201.81933,106.9047 L 201.81933,106.04533 L 212.81933,106.04533 z M 8.4277191,111.62052 L 11.446274,115.65959 L 9.791977,115.65959 L 6.300766,111.62052 L 8.4277191,111.62052 z M 24.079087,123.16838 L 23.423813,123.16838 C 22.270813,123.16838 21.402487,123.3707 20.818833,123.77531 C 20.23517,124.17994 19.943341,124.78329 19.943344,125.58537 C 19.943341,126.30868 20.161765,126.87085 20.598618,127.27189 C 21.035462,127.67294 21.640605,127.87346 22.414048,127.87346 C 23.502582,127.87346 24.358376,127.49569 24.98143,126.74016 C 25.604468,125.98463 25.919572,124.94084 25.926743,123.60881 L 25.926743,123.16838 L 24.079087,123.16838 z M 27.914048,122.35197 L 27.914048,129.21623 L 25.926743,129.21623 L 25.926743,127.43303 C 25.504208,128.14917 24.97247,128.67733 24.331528,129.0175 C 23.69057,129.35767 22.911763,129.52775 21.995102,129.52775 C 20.770489,129.52775 19.792951,129.18221 19.062485,128.49113 C 18.332015,127.80005 17.966781,126.87444 17.966782,125.71428 C 17.966781,124.37509 18.416162,123.35816 19.314926,122.6635 C 20.213686,121.96884 21.533183,121.62151 23.273423,121.6215 L 25.926743,121.6215 L 25.926743,121.30998 C 25.919572,120.35035 25.676083,119.6539 25.196274,119.22062 C 24.716448,118.78736 23.950173,118.57073 22.897446,118.57072 C 22.224263,118.57073 21.543925,118.66741 20.85643,118.86076 C 20.168927,119.05413 19.499331,119.33701 18.847641,119.70939 L 18.847641,117.73283 C 19.578107,117.45354 20.278139,117.24407 20.947739,117.10441 C 21.61733,116.96477 22.267232,116.89495 22.897446,116.89494 C 23.892881,116.89495 24.743304,117.04176 25.448716,117.33537 C 26.15411,117.629 26.725235,118.06943 27.162094,118.65666 C 27.434219,119.01474 27.627578,119.45696 27.742173,119.98332 C 27.856745,120.5097 27.914036,121.29925 27.914048,122.35197 L 27.914048,122.35197 z M 39.633774,123.21135 C 39.633764,121.6788 39.390275,120.52223 38.903305,119.74162 C 38.416318,118.96103 37.696592,118.57073 36.744126,118.57072 C 35.784484,118.57073 35.057597,118.96282 34.563462,119.74699 C 34.069317,120.53118 33.822247,121.68596 33.822251,123.21135 C 33.822247,124.72958 34.069317,125.88257 34.563462,126.67033 C 35.057597,127.45809 35.784484,127.85197 36.744126,127.85197 C 37.696592,127.85197 38.416318,127.46167 38.903305,126.68107 C 39.390275,125.90048 39.633764,124.7439 39.633774,123.21135 L 39.633774,123.21135 z M 33.822251,118.72111 C 34.13735,118.13388 34.572409,117.68271 35.127426,117.36759 C 35.682434,117.0525 36.325174,116.89495 37.055649,116.89494 C 38.502255,116.89495 39.640926,117.45175 40.471665,118.56535 C 41.302382,119.67897 41.717747,121.21331 41.717759,123.16838 C 41.717747,125.15211 41.300592,126.70793 40.466294,127.83586 C 39.631974,128.96379 38.487932,129.52775 37.034165,129.52775 C 36.318012,129.52775 35.686014,129.37199 35.138169,129.06047 C 34.590312,128.74895 34.151673,128.29598 33.822251,127.70158 L 33.822251,129.21623 L 31.845688,129.21623 L 31.845688,112.50138 L 33.822251,112.50138 L 33.822251,118.72111 z M 54.404282,128.60393 C 53.874323,128.91187 53.328263,129.14283 52.766098,129.2968 C 52.203915,129.45077 51.629208,129.52775 51.041977,129.52775 C 49.179992,129.52775 47.724427,128.96916 46.675278,127.85197 C 45.626122,126.73479 45.101545,125.18791 45.101548,123.21135 C 45.101545,121.23479 45.626122,119.68792 46.675278,118.57072 C 47.724427,117.45354 49.179992,116.89495 51.041977,116.89494 C 51.622047,116.89495 52.187801,116.97015 52.739243,117.12052 C 53.290665,117.27093 53.845677,117.50367 54.404282,117.81877 L 54.404282,119.89201 C 53.881485,119.42653 53.356908,119.08994 52.830551,118.88224 C 52.304175,118.67457 51.707984,118.57073 51.041977,118.57072 C 49.803038,118.57073 48.850565,118.97177 48.184555,119.77385 C 47.518535,120.57594 47.185528,121.72177 47.185532,123.21135 C 47.185528,124.69377 47.520326,125.83782 48.189926,126.64348 C 48.859517,127.44914 49.8102,127.85197 51.041977,127.85197 C 51.729469,127.85197 52.345353,127.74634 52.889634,127.53508 C 53.433894,127.32382 53.938776,126.99618 54.404282,126.55217 L 54.404282,128.60393 z M 65.457993,118.72111 L 65.457993,112.50138 L 67.434555,112.50138 L 67.434555,129.21623 L 65.457993,129.21623 L 65.457993,127.70158 C 65.128557,128.29598 64.689918,128.74895 64.142075,129.06047 C 63.594216,129.37199 62.962218,129.52775 62.246079,129.52775 C 60.792298,129.52775 59.648256,128.96379 58.81395,127.83586 C 57.979638,126.70793 57.562484,125.15211 57.562485,123.16838 C 57.562484,121.21331 57.981429,119.67897 58.819321,118.56535 C 59.657208,117.45175 60.79946,116.89495 62.246079,116.89494 C 62.969379,116.89495 63.606749,117.05071 64.158188,117.36222 C 64.709612,117.67376 65.14288,118.12672 65.457993,118.72111 L 65.457993,118.72111 z M 59.646469,123.21135 C 59.646466,124.7439 59.889955,125.90048 60.376938,126.68107 C 60.863913,127.46167 61.583639,127.85197 62.536118,127.85197 C 63.488585,127.85197 64.213682,127.45809 64.711411,126.67033 C 65.209123,125.88257 65.457984,124.72958 65.457993,123.21135 C 65.457984,121.68596 65.209123,120.53118 64.711411,119.74699 C 64.213682,118.96282 63.488585,118.57073 62.536118,118.57072 C 61.583639,118.57073 60.863913,118.96103 60.376938,119.74162 C 59.889955,120.52223 59.646466,121.6788 59.646469,123.21135 L 59.646469,123.21135 z M 81.420884,122.70646 L 81.420884,123.67326 L 72.85936,123.67326 L 72.85936,123.73771 C 72.859357,125.04827 73.201316,126.06161 73.885239,126.77775 C 74.569153,127.4939 75.534159,127.85197 76.780259,127.85197 C 77.410459,127.85197 78.069312,127.75171 78.756821,127.55119 C 79.444311,127.35067 80.17836,127.04631 80.958969,126.63811 L 80.958969,128.60393 C 80.207006,128.91187 79.481909,129.14283 78.783676,129.2968 C 78.085426,129.45077 77.410459,129.52775 76.758774,129.52775 C 74.889628,129.52775 73.428692,128.96737 72.375962,127.8466 C 71.323225,126.72584 70.796859,125.18075 70.79686,123.21135 C 70.796859,121.29208 71.312483,119.75953 72.343735,118.61369 C 73.374981,117.46787 74.74998,116.89495 76.468735,116.89494 C 78.001279,116.89495 79.209774,117.41416 80.094223,118.45256 C 80.978652,119.49098 81.420872,120.90895 81.420884,122.70646 L 81.420884,122.70646 z M 79.444321,122.12639 C 79.415665,120.96624 79.14174,120.08359 78.622544,119.47844 C 78.103329,118.8733 77.356748,118.57073 76.382798,118.57072 C 75.430318,118.57073 74.646139,118.88583 74.030259,119.51603 C 73.414369,120.14625 73.049135,121.01995 72.934555,122.13713 L 79.444321,122.12639 z M 94.128891,112.50138 L 94.128891,114.14494 L 91.883774,114.14494 C 91.174781,114.14495 90.682432,114.28997 90.406723,114.58 C 90.131,114.87005 89.993142,115.38388 89.993149,116.1215 L 89.993149,117.18498 L 94.128891,117.18498 L 94.128891,118.72111 L 89.993149,118.72111 L 89.993149,129.21623 L 88.016587,129.21623 L 88.016587,118.72111 L 84.804673,118.72111 L 84.804673,117.18498 L 88.016587,117.18498 L 88.016587,116.34709 C 88.016581,115.02939 88.319153,114.05902 88.924301,113.43595 C 89.529438,112.81292 90.472959,112.5014 91.754868,112.50138 L 94.128891,112.50138 z M 105.16112,123.10393 C 105.16111,121.62151 104.91941,120.49537 104.43602,119.72551 C 103.95262,118.95566 103.249,118.57073 102.32518,118.57072 C 101.35838,118.57073 100.62075,118.95566 100.11229,119.72551 C 99.603823,120.49537 99.349591,121.62151 99.349594,123.10393 C 99.349591,124.58635 99.605613,125.71607 100.11766,126.49309 C 100.6297,127.27011 101.3727,127.65861 102.34666,127.65861 C 103.25616,127.65861 103.95262,127.26832 104.43602,126.48771 C 104.91941,125.70712 105.16111,124.57919 105.16112,123.10393 L 105.16112,123.10393 z M 107.13768,128.44279 C 107.13767,130.24748 106.71157,131.61532 105.85936,132.54631 C 105.00714,133.47729 103.75389,133.94279 102.09959,133.94279 C 101.55532,133.94279 100.98598,133.89266 100.39159,133.7924 C 99.797182,133.69214 99.202781,133.54533 98.608384,133.35197 L 98.608384,131.39689 C 99.310203,131.72632 99.947572,131.96981 100.52049,132.12736 C 101.0934,132.28491 101.61977,132.36369 102.09959,132.36369 C 103.16664,132.36369 103.94367,132.07365 104.43065,131.49357 C 104.91762,130.91349 105.16111,129.99325 105.16112,128.73283 L 105.16112,128.64689 L 105.16112,127.30412 C 104.84601,127.9773 104.41632,128.4786 103.87206,128.80803 C 103.32778,129.13745 102.66534,129.30217 101.88475,129.30217 C 100.4811,129.30217 99.360333,128.73999 98.522446,127.61564 C 97.684554,126.4913 97.265609,124.98739 97.26561,123.10393 C 97.265609,121.21331 97.684554,119.70582 98.522446,118.58146 C 99.360333,117.45712 100.4811,116.89495 101.88475,116.89494 C 102.65818,116.89495 103.31346,117.04892 103.85058,117.35685 C 104.38768,117.66481 104.82452,118.14104 105.16112,118.78556 L 105.16112,117.22795 L 107.13768,117.22795 L 107.13768,128.44279 z M 120.46874,121.76115 L 120.46874,129.21623 L 118.48143,129.21623 L 118.48143,121.76115 C 118.48143,120.67978 118.29165,119.88486 117.9121,119.37639 C 117.53253,118.86793 116.93813,118.6137 116.1289,118.61369 C 115.20506,118.6137 114.49429,118.94134 113.99657,119.5966 C 113.49885,120.25188 113.24998,121.19182 113.24999,122.41643 L 113.24999,129.21623 L 111.27343,129.21623 L 111.27343,112.50138 L 113.24999,112.50138 L 113.24999,118.98967 C 113.6009,118.30218 114.07713,117.78118 114.6787,117.42668 C 115.28026,117.0722 115.99282,116.89495 116.8164,116.89494 C 118.041,116.89495 118.95587,117.29778 119.56102,118.10343 C 120.16616,118.90911 120.46873,120.12835 120.46874,121.76115 L 120.46874,121.76115 z M 125.16308,117.18498 L 130.22265,117.18498 L 130.22265,127.6801 L 134.14354,127.6801 L 134.14354,129.21623 L 124.32518,129.21623 L 124.32518,127.6801 L 128.24608,127.6801 L 128.24608,118.72111 L 125.16308,118.72111 L 125.16308,117.18498 z M 128.24608,112.50138 L 130.22265,112.50138 L 130.22265,115.00431 L 128.24608,115.00431 L 128.24608,112.50138 z M 142.09276,129.43107 L 142.09276,118.72111 L 138.68749,118.72111 L 138.68749,117.18498 L 144.06933,117.18498 L 144.06933,129.43107 C 144.06932,130.82756 143.74884,131.90356 143.1079,132.6591 C 142.46694,133.41463 141.55565,133.7924 140.37401,133.7924 L 137.6455,133.7924 L 137.6455,132.11662 L 140.15917,132.11662 C 140.80369,132.11662 141.28709,131.89282 141.60936,131.44523 C 141.93162,130.99764 142.09276,130.32625 142.09276,129.43107 L 142.09276,129.43107 z M 142.09276,112.50138 L 144.06933,112.50138 L 144.06933,115.00431 L 142.09276,115.00431 L 142.09276,112.50138 z M 151.41698,112.50138 L 153.458,112.50138 L 153.458,122.1801 L 158.64647,117.18498 L 161.05272,117.18498 L 156.31542,121.71818 L 161.79393,129.21623 L 159.37694,129.21623 L 154.92968,123.00725 L 153.458,124.39299 L 153.458,129.21623 L 151.41698,129.21623 L 151.41698,112.50138 z M 168.98046,124.8549 C 168.98045,125.74293 169.14337,126.41252 169.46923,126.86369 C 169.79507,127.31486 170.27667,127.54045 170.91405,127.54045 L 173.22362,127.54045 L 173.22362,129.21623 L 170.72069,129.21623 C 169.53904,129.21623 168.62417,128.83667 167.97606,128.07756 C 167.32795,127.31845 167.00389,126.24423 167.0039,124.8549 L 167.0039,113.93009 L 163.83495,113.93009 L 163.83495,112.38322 L 168.98046,112.38322 L 168.98046,124.8549 z M 182.61229,118.40959 C 182.85578,117.89397 183.16551,117.51263 183.54149,117.26554 C 183.91746,117.01849 184.37042,116.89495 184.90038,116.89494 C 185.86717,116.89495 186.54929,117.26914 186.94677,118.0175 C 187.34422,118.76588 187.54295,120.1749 187.54296,122.24455 L 187.54296,129.21623 L 185.73827,129.21623 L 185.73827,122.33049 C 185.73826,120.63323 185.64337,119.57871 185.4536,119.16691 C 185.26381,118.75514 184.91827,118.54925 184.41698,118.54924 C 183.84406,118.54925 183.45197,118.76946 183.24071,119.20988 C 183.02944,119.65032 182.92381,120.69052 182.92382,122.33049 L 182.92382,129.21623 L 181.11913,129.21623 L 181.11913,122.33049 C 181.11912,120.61175 181.01707,119.55185 180.81298,119.1508 C 180.60887,118.74977 180.24185,118.54925 179.7119,118.54924 C 179.18911,118.54925 178.82567,118.76946 178.62157,119.20988 C 178.41747,119.65032 178.31542,120.69052 178.31542,122.33049 L 178.31542,129.21623 L 176.52147,129.21623 L 176.52147,117.18498 L 178.31542,117.18498 L 178.31542,118.21623 C 178.55174,117.78655 178.84715,117.45892 179.20165,117.23332 C 179.55614,117.00774 179.95897,116.89495 180.41015,116.89494 C 180.95441,116.89495 181.40737,117.02028 181.76903,117.27092 C 182.13068,117.52158 182.41177,117.90113 182.61229,118.40959 L 182.61229,118.40959 z M 199.87499,121.76115 L 199.87499,129.21623 L 197.88768,129.21623 L 197.88768,121.76115 C 197.88768,120.67978 197.6979,119.88486 197.31835,119.37639 C 196.93878,118.86793 196.34438,118.6137 195.53515,118.61369 C 194.61131,118.6137 193.90054,118.94134 193.40282,119.5966 C 192.9051,120.25188 192.65623,121.19182 192.65624,122.41643 L 192.65624,129.21623 L 190.67968,129.21623 L 190.67968,117.18498 L 192.65624,117.18498 L 192.65624,118.98967 C 193.00715,118.30218 193.48338,117.78118 194.08495,117.42668 C 194.68651,117.0722 195.39907,116.89495 196.22265,116.89494 C 197.44725,116.89495 198.36212,117.29778 198.96727,118.10343 C 199.57241,118.90911 199.87498,120.12835 199.87499,121.76115 L 199.87499,121.76115 z M 208.43651,118.57072 C 207.4339,118.57073 206.67479,118.96103 206.15917,119.74162 C 205.64354,120.52223 205.38573,121.6788 205.38573,123.21135 C 205.38573,124.73674 205.64354,125.89153 206.15917,126.6757 C 206.67479,127.45988 207.4339,127.85197 208.43651,127.85197 C 209.44627,127.85197 210.20897,127.45988 210.7246,126.6757 C 211.24021,125.89153 211.49803,124.73674 211.49804,123.21135 C 211.49803,121.6788 211.24021,120.52223 210.7246,119.74162 C 210.20897,118.96103 209.44627,118.57073 208.43651,118.57072 L 208.43651,118.57072 z M 208.43651,116.89494 C 210.10512,116.89495 211.38165,117.43564 212.2661,118.51701 C 213.15053,119.5984 213.59275,121.16318 213.59276,123.21135 C 213.59275,125.26669 213.15232,126.83326 212.27147,127.91105 C 211.3906,128.98885 210.11229,129.52775 208.43651,129.52775 C 206.76789,129.52775 205.49315,128.98885 204.61229,127.91105 C 203.73143,126.83326 203.291,125.26669 203.291,123.21135 C 203.291,121.16318 203.73143,119.5984 204.61229,118.51701 C 205.49315,117.43564 206.76789,116.89495 208.43651,116.89494 L 208.43651,116.89494 z M 7.332016,155.20158 L 7.332016,161.2924 L 5.3447113,161.2924 L 5.3447113,144.68498 L 7.332016,144.68498 L 7.332016,146.22111 C 7.6614387,145.62672 8.1000776,145.17376 8.647934,144.86223 C 9.1957797,144.55071 9.8277777,144.39495 10.54393,144.39494 C 11.997697,144.39495 13.138159,144.95713 13.965317,146.08146 C 14.792454,147.20582 15.206028,148.76344 15.20604,150.75432 C 15.206028,152.7094 14.790664,154.24374 13.959946,155.35734 C 13.129207,156.47095 11.990536,157.02775 10.54393,157.02775 C 9.8134548,157.02775 9.1742953,156.87199 8.6264496,156.56047 C 8.0785933,156.24895 7.6471158,155.79598 7.332016,155.20158 L 7.332016,155.20158 z M 13.132797,150.71135 C 13.132787,149.1788 12.891089,148.02223 12.4077,147.24162 C 11.924292,146.46103 11.206357,146.07073 10.253891,146.07072 C 9.2942496,146.07073 8.5673623,146.46282 8.073227,147.24699 C 7.579082,148.03118 7.332012,149.18596 7.332016,150.71135 C 7.332012,152.22958 7.579082,153.38257 8.073227,154.17033 C 8.5673623,154.95809 9.2942496,155.35197 10.253891,155.35197 C 11.206357,155.35197 11.924292,154.96167 12.4077,154.18107 C 12.891089,153.40048 13.132787,152.2439 13.132797,150.71135 L 13.132797,150.71135 z M 20.104477,150.75432 C 20.104474,152.28687 20.346173,153.44345 20.829575,154.22404 C 21.312969,155.00464 22.030904,155.39494 22.983384,155.39494 C 23.93585,155.39494 24.657366,155.00285 25.147934,154.21867 C 25.638485,153.4345 25.883765,152.27971 25.883774,150.75432 C 25.883765,149.22893 25.638485,148.07415 25.147934,147.28996 C 24.657366,146.50579 23.93585,146.1137 22.983384,146.11369 C 22.030904,146.1137 21.312969,146.504 20.829575,147.28459 C 20.346173,148.0652 20.104474,149.22177 20.104477,150.75432 L 20.104477,150.75432 z M 25.883774,155.22307 C 25.561499,155.81747 25.126441,156.27401 24.578598,156.59269 C 24.030739,156.91138 23.39516,157.07072 22.67186,157.07072 C 21.232402,157.07072 20.095522,156.51392 19.261216,155.40031 C 18.426904,154.28671 18.009749,152.75237 18.009751,150.79728 C 18.009749,148.80641 18.425113,147.24879 19.255844,146.12443 C 20.08657,145.0001 21.225241,144.43792 22.67186,144.43791 C 23.387999,144.43792 24.019997,144.59368 24.567856,144.90519 C 25.115699,145.21673 25.554338,145.66969 25.883774,146.26408 L 25.883774,144.72795 L 27.871079,144.72795 L 27.871079,161.33537 L 25.883774,161.33537 L 25.883774,155.22307 z M 42.179673,147.16643 C 41.757135,146.83701 41.327447,146.5971 40.89061,146.4467 C 40.45375,146.29632 39.973933,146.22112 39.451157,146.22111 C 38.219378,146.22112 37.277647,146.60784 36.625962,147.38127 C 35.974263,148.15472 35.648417,149.2719 35.648423,150.73283 L 35.648423,156.71623 L 33.661118,156.71623 L 33.661118,144.68498 L 35.648423,144.68498 L 35.648423,147.03752 C 35.977843,146.18532 36.484516,145.53183 37.168442,145.07707 C 37.852353,144.62233 38.663388,144.39495 39.601548,144.39494 C 40.088516,144.39495 40.543269,144.45583 40.965805,144.57756 C 41.38832,144.69931 41.792942,144.88909 42.179673,145.14689 L 42.179673,147.16643 z M 53.458969,145.10393 L 53.458969,147.03752 C 52.893204,146.7081 52.323869,146.46103 51.750962,146.29631 C 51.178037,146.13161 50.594379,146.04925 49.999985,146.04924 C 49.104797,146.04925 48.436991,146.19427 47.996567,146.4843 C 47.556133,146.77435 47.335918,147.21657 47.335923,147.81096 C 47.335918,148.34807 47.500632,148.74912 47.830063,149.01408 C 48.159485,149.27906 48.979471,149.53688 50.290024,149.78752 L 51.084946,149.93791 C 52.066057,150.12411 52.809057,150.49651 53.31395,151.0551 C 53.818822,151.6137 54.071263,152.34058 54.071274,153.23576 C 54.071263,154.42457 53.648737,155.35376 52.803696,156.02336 C 51.958635,156.69296 50.784157,157.02775 49.280259,157.02775 C 48.685852,157.02775 48.062806,156.96509 47.411118,156.83977 C 46.759421,156.71444 46.054018,156.52645 45.294907,156.2758 L 45.294907,154.23478 C 46.032534,154.61434 46.737937,154.89901 47.411118,155.08879 C 48.08429,155.27857 48.721659,155.37346 49.323227,155.37346 C 50.196918,155.37346 50.873675,155.19621 51.353501,154.84172 C 51.83331,154.48723 52.073218,153.9913 52.073227,153.35393 C 52.073218,152.43726 51.19594,151.80347 49.441391,151.45256 L 49.355454,151.43107 L 48.614243,151.28068 C 47.475567,151.05868 46.644838,150.6845 46.122055,150.15812 C 45.599266,149.63176 45.337873,148.91383 45.337876,148.00432 C 45.337873,146.85133 45.728172,145.96152 46.508774,145.33488 C 47.289369,144.70827 48.402974,144.39495 49.849594,144.39494 C 50.494118,144.39495 51.113584,144.45404 51.707993,144.57219 C 52.302385,144.69036 52.886043,144.86761 53.458969,145.10393 L 53.458969,145.10393 z M 62.836899,141.26896 L 62.836899,144.68498 L 67.327134,144.68498 L 67.327134,146.22111 L 62.836899,146.22111 L 62.836899,152.75236 C 62.836893,153.64039 63.005187,154.25985 63.341782,154.61076 C 63.678363,154.96167 64.265602,155.13713 65.103501,155.13713 L 67.327134,155.13713 L 67.327134,156.71623 L 64.910141,156.71623 C 63.427712,156.71623 62.38214,156.41903 61.773423,155.82463 C 61.164694,155.23023 60.860332,154.20614 60.860337,152.75236 L 60.860337,146.22111 L 57.648423,146.22111 L 57.648423,144.68498 L 60.860337,144.68498 L 60.860337,141.26896 L 62.836899,141.26896 z M 71.570298,152.16154 L 71.570298,144.70646 L 73.54686,144.70646 L 73.54686,152.16154 C 73.546856,153.24293 73.738425,154.03785 74.121567,154.54631 C 74.5047,155.05477 75.09731,155.309 75.899399,155.309 C 76.830381,155.309 77.542946,154.98137 78.037094,154.32609 C 78.531226,153.67082 78.778296,152.73088 78.778305,151.50627 L 78.778305,144.70646 L 80.76561,144.70646 L 80.76561,156.71623 L 78.778305,156.71623 L 78.778305,154.91154 C 78.427385,155.60621 77.949358,156.13257 77.344223,156.49064 C 76.739073,156.84872 76.03188,157.02775 75.222641,157.02775 C 73.990866,157.02775 73.0742,156.62492 72.472641,155.81926 C 71.871076,155.01359 71.570295,153.79436 71.570298,152.16154 L 71.570298,152.16154 z M 83.784165,144.68498 L 85.835923,144.68498 L 89.327134,154.78264 L 92.829087,144.68498 L 94.880844,144.68498 L 90.605454,156.71623 L 88.059555,156.71623 L 83.784165,144.68498 z M 95.944321,144.68498 L 97.899399,144.68498 L 99.994126,154.40666 L 101.71288,148.19768 L 103.3994,148.19768 L 105.13964,154.40666 L 107.23436,144.68498 L 109.18944,144.68498 L 106.37499,156.71623 L 104.48436,156.71623 L 102.56151,150.12053 L 100.6494,156.71623 L 98.758774,156.71623 L 95.944321,144.68498 z M 121.18847,144.68498 L 116.88085,150.44279 L 121.60741,156.71623 L 119.31933,156.71623 L 115.79589,151.89299 L 112.28319,156.71623 L 109.99511,156.71623 L 114.72167,150.44279 L 110.41405,144.68498 L 112.60546,144.68498 L 115.79589,149.03557 L 118.96483,144.68498 L 121.18847,144.68498 z M 131.62987,152.84904 C 131.30044,153.68694 130.88149,154.7898 130.37304,156.15764 C 129.66404,158.04826 129.18781,159.20125 128.94433,159.61662 C 128.61489,160.17521 128.20311,160.59416 127.70897,160.87346 C 127.21483,161.15275 126.63833,161.2924 125.97948,161.2924 L 124.38964,161.2924 L 124.38964,159.63811 L 125.56054,159.63811 C 126.14061,159.6381 126.59536,159.46981 126.92479,159.13322 C 127.25422,158.79663 127.67316,157.92652 128.18163,156.52287 L 123.53026,144.68498 L 125.62499,144.68498 L 129.1914,154.09514 L 132.70409,144.68498 L 134.79882,144.68498 L 131.62987,152.84904 z M 138.08593,144.6635 L 146.81933,144.6635 L 146.81933,146.46818 L 139.9121,155.1049 L 146.81933,155.1049 L 146.81933,156.71623 L 137.82811,156.71623 L 137.82811,154.89006 L 144.73534,146.2426 L 138.08593,146.2426 L 138.08593,144.6635 z M 159.75292,158.75725 L 159.75292,160.30412 L 159.06542,160.30412 C 157.28221,160.30412 156.08804,160.03914 155.4829,159.5092 C 154.87775,158.97925 154.57518,157.92293 154.57518,156.34025 L 154.57518,153.77287 C 154.57518,152.69149 154.38361,151.94312 154.00048,151.52775 C 153.61733,151.11239 152.92446,150.90471 151.92186,150.90471 L 151.25585,150.90471 L 151.25585,149.36857 L 151.92186,149.36857 C 152.93163,149.36858 153.62629,149.16448 154.00585,148.75627 C 154.3854,148.34807 154.57518,147.60686 154.57518,146.53264 L 154.57518,143.95451 C 154.57518,142.37184 154.87775,141.31732 155.4829,140.79094 C 156.08804,140.26459 157.28221,140.0014 159.06542,140.00139 L 159.75292,140.00139 L 159.75292,141.53752 L 159.00097,141.53752 C 157.99835,141.53753 157.34487,141.6933 157.04052,142.0048 C 156.73615,142.31634 156.58397,142.98057 156.58397,143.99748 L 156.58397,146.66154 C 156.58397,147.7859 156.42104,148.60231 156.0952,149.11076 C 155.76935,149.61923 155.21255,149.96298 154.42479,150.14201 C 155.21971,150.33538 155.7783,150.68629 156.10058,151.19475 C 156.42283,151.70321 156.58397,152.51604 156.58397,153.63322 L 156.58397,156.29728 C 156.58397,157.32137 156.73615,157.98739 157.04052,158.29533 C 157.34487,158.60327 157.99835,158.75724 159.00097,158.75725 L 159.75292,158.75725 z M 169.65722,139.90471 L 169.65722,161.90471 L 167.80956,161.90471 L 167.80956,139.90471 L 169.65722,139.90471 z M 177.7246,158.75725 L 178.45507,158.75725 C 179.46483,158.75724 180.12368,158.59969 180.43163,158.28459 C 180.73957,157.96948 180.89354,157.30705 180.89354,156.29728 L 180.89354,153.63322 C 180.89354,152.51604 181.05467,151.70321 181.37694,151.19475 C 181.6992,150.68629 182.25779,150.33538 183.05272,150.14201 C 182.26496,149.96298 181.70815,149.61923 181.38231,149.11076 C 181.05646,148.60231 180.89354,147.7859 180.89354,146.66154 L 180.89354,143.99748 C 180.89354,142.98773 180.73957,142.32529 180.43163,142.01018 C 180.12368,141.69509 179.46483,141.53753 178.45507,141.53752 L 177.7246,141.53752 L 177.7246,140.00139 L 178.39061,140.00139 C 180.17381,140.0014 181.36619,140.26459 181.96776,140.79094 C 182.56932,141.31732 182.8701,142.37184 182.87011,143.95451 L 182.87011,146.53264 C 182.8701,147.60686 183.06167,148.34807 183.44481,148.75627 C 183.82794,149.16448 184.52439,149.36858 185.53417,149.36857 L 186.22167,149.36857 L 186.22167,150.90471 L 185.53417,150.90471 C 184.52439,150.90471 183.82794,151.11239 183.44481,151.52775 C 183.06167,151.94312 182.8701,152.69149 182.87011,153.77287 L 182.87011,156.34025 C 182.8701,157.92293 182.56932,158.97925 181.96776,159.5092 C 181.36619,160.03914 180.17381,160.30412 178.39061,160.30412 L 177.7246,160.30412 L 177.7246,158.75725 z M 200.88475,148.33732 L 200.88475,150.20646 C 200.34763,150.629 199.82306,150.93873 199.31102,151.13566 C 198.79897,151.33261 198.26007,151.43108 197.69433,151.43107 C 197.04979,151.43108 196.3229,151.24846 195.51366,150.88322 C 195.3561,150.81161 195.23794,150.76148 195.15917,150.73283 C 194.60773,150.49651 194.14761,150.33538 193.7788,150.24943 C 193.40998,150.1635 193.04295,150.12053 192.67772,150.12053 C 192.11196,150.12053 191.57665,150.22616 191.07177,150.43742 C 190.56688,150.64869 190.05305,150.97991 189.53026,151.43107 L 189.53026,149.56193 C 190.08885,149.13225 190.62954,148.82073 191.15233,148.62736 C 191.67512,148.43401 192.23371,148.33733 192.82811,148.33732 C 193.20767,148.33733 193.57648,148.37672 193.93456,148.45549 C 194.29263,148.53427 194.73664,148.68466 195.26659,148.90666 C 195.35252,148.94247 195.47069,148.99619 195.62108,149.06779 C 196.4518,149.46168 197.20018,149.65862 197.8662,149.65861 C 198.36749,149.65862 198.86342,149.54941 199.35399,149.33098 C 199.84454,149.11256 200.3548,148.78134 200.88475,148.33732 L 200.88475,148.33732 z "
     style="fill:#ffffff" />
</svg>
