<?xml version="1.0" encoding="UTF-8" standalone="no"?>
<!-- Created with Inkscape (http://www.inkscape.org/) -->
<svg
   xmlns:svg="http://www.w3.org/2000/svg"
   xmlns="http://www.w3.org/2000/svg"
   version="1.0"
   width="780"
   height="200"
   id="svg2403">
  <defs
     id="defs2405" />
  <g
     transform="translate(-33.635708,-34.236774)"
     id="layer1">
    <path
       d="M 135.8826,84.471878 C 129.69318,84.671478 125.19494,89.220134 120.69638,93.344374 C 114.55206,98.977238 108.68854,111.67618 105.96918,116.315 C 103.29142,120.88292 102.36038,123.56521 99.292534,127.86956 C 95.719734,132.88257 93.442134,138.34196 90.478454,143.72079 C 87.594294,148.95559 85.627734,154.67095 84.305654,160.44613 C 83.162454,165.44017 91.500054,164.36777 91.989334,160.16705 C 92.569174,155.19069 93.794454,151.02765 96.811894,143.23697 C 98.357814,139.24562 102.17878,133.54709 103.9935,130.15053 C 105.13782,128.00911 105.9103,125.621 108.79126,125.61108 C 112.29542,125.59901 116.53798,124.97229 120.69238,125.11993 C 124.39382,125.25145 122.8815,126.75085 121.90294,128.77175 C 119.53206,133.66724 114.86342,143.28721 114.27526,148.39115 C 113.78262,152.66705 121.7535,152.73985 121.5727,147.89423 C 121.4295,144.05466 122.2727,138.73063 123.93046,135.31065 C 125.51814,132.0353 125.97862,130.14061 127.24598,126.94618 C 127.69622,125.81129 128.24102,125.32105 129.23478,125.29751 C 133.4471,125.19777 139.66708,124.92463 143.78676,124.69482 C 146.22084,124.55903 148.12596,120.29865 143.67924,120.39412 C 131.5023,120.65929 116.6767,121.36193 110.29126,121.36193 C 108.0247,121.36193 106.87766,121.95924 108.71046,118.41711 C 109.94966,116.02244 113.5775,110.98911 115.44662,107.75287 C 117.78038,103.71201 119.24846,100.75671 123.70566,96.700534 C 125.7374,94.851606 129.78198,90.51663 135.28692,90.394534 C 139.64372,90.29879 142.00772,89.442902 142.00772,87.978054 C 142.00772,85.317094 140.30052,84.329398 135.8826,84.471878 z"
       id="path3271"
       style="fill:#000000;fill-opacity:1;fill-rule:evenodd;stroke:none;stroke-width:0.1;stroke-linecap:butt;stroke-linejoin:miter;stroke-miterlimit:4;stroke-dasharray:none;stroke-opacity:1" />
    <path
       d="M 341.54807,123.17644 C 339.63559,128.46485 338.45175,133.45047 338.44807,137.22644 C 338.44295,142.33615 340.47863,151.31255 347.44807,151.67643 C 354.51399,152.04971 360.71831,140.11645 362.09799,133.17644 C 362.35959,131.86049 362.58775,129.74001 360.54807,129.52644 C 359.26039,129.39161 358.27943,130.85261 358.04807,132.12644 C 356.97031,138.05969 353.56503,146.39913 348.59799,145.92644 C 345.44119,145.62601 343.65095,140.57292 343.79799,136.02644 C 344.14791,131.85543 344.89111,127.70233 345.94807,123.62644 C 351.14327,123.55425 355.98951,121.37985 360.44807,121.47644 C 366.25271,121.60394 368.46199,127.52397 368.59799,131.37644 C 368.84839,138.38967 366.57927,140.03767 366.69799,143.97644 C 366.84631,148.88989 369.15863,149.19999 371.34807,149.27643 C 374.80599,149.39719 376.73511,145.31738 378.49639,142.72335 C 379.98791,140.52671 381.27639,137.16703 382.04807,134.62644 C 382.51767,133.07989 383.26455,130.42167 381.74807,129.82644 C 379.74151,129.03889 379.02455,129.19031 378.94807,131.77644 C 378.84647,135.31255 376.74583,139.87292 374.44807,142.67644 C 373.89447,143.35181 372.66055,144.53327 371.39799,143.82644 C 370.48919,143.3177 370.93671,141.45532 371.09799,140.42644 C 371.43271,138.29154 372.49319,134.51127 372.54807,131.07644 C 372.60983,127.19986 372.29351,123.10914 370.04807,120.67644 C 368.06679,118.53002 365.69303,117.94087 360.69799,117.92644 C 356.55367,117.91449 351.31319,119.97097 346.94807,120.12644 C 348.97895,113.6801 351.90343,107.51449 355.84807,102.02644 C 358.84887,100.21407 361.71431,98.41159 364.19799,96.576438 C 373.20151,89.92423 388.06855,82.49695 396.24807,73.926438 C 398.32151,71.753894 401.57303,67.982294 399.84807,66.176438 C 399.13175,65.426502 395.99079,66.146022 394.82055,66.509302 C 392.57751,67.20567 390.26855,68.427078 387.74807,70.326438 C 373.91511,80.750566 367.07751,85.13919 357.84807,95.026438 C 357.12983,95.795798 356.41463,96.645318 355.69799,97.526438 C 346.64711,103.01468 338.13831,108.70903 331.39799,115.57644 C 330.69847,116.28917 329.44503,117.72005 330.59799,118.62644 C 332.04407,119.76311 333.51271,118.34282 334.54807,117.17644 C 338.47543,112.75215 344.36903,108.7937 350.24647,105.22954 C 347.51079,109.68138 344.93079,114.77413 342.94807,119.57644 C 342.35799,119.37122 341.78775,119.12637 341.44807,118.72644 C 340.61591,117.74668 342.20199,115.25901 340.94807,114.97644 C 338.97015,114.53074 336.44007,118.04044 336.84807,120.02644 C 337.20343,121.75693 339.44647,122.6949 341.54807,123.17644 z M 393.99799,70.826438 C 394.84999,70.860742 394.80695,71.77703 392.94807,73.326438 C 384.53591,80.338246 374.75159,85.897286 364.90615,92.07103 C 373.16103,84.639078 383.78759,77.423334 391.69799,71.776438 C 392.65127,71.095942 393.48679,70.805846 393.99799,70.826438 z M 404.04807,104.37644 C 403.39287,104.28693 402.40663,104.60463 401.29799,105.32644 C 397.34311,107.90145 391.08823,109.61593 386.44807,110.47644 C 377.40407,112.15362 367.48807,111.8046 358.74807,111.27644 C 354.02599,110.99108 346.61687,115.0133 354.79799,115.57644 C 363.30791,116.16778 370.57191,116.06308 377.19799,115.52644 C 383.76887,114.99428 393.07623,113.75319 398.89799,111.57644 C 400.88535,110.83338 402.31159,109.47421 403.64807,107.82644 C 405.32503,105.75879 405.14007,104.52561 404.04807,104.37644 z"
       id="path3273"
       style="fill:#000000;fill-opacity:1;fill-rule:evenodd;stroke:none;stroke-width:0.1;stroke-linecap:butt;stroke-linejoin:miter;stroke-miterlimit:4;stroke-dasharray:none;stroke-opacity:1" />
    <path
       d="M 253.83,128.87941 C 258.49784,128.90853 262.42888,127.96941 267.798,127.28527 C 269.8348,127.02575 272.93608,126.8593 273.43768,124.86829 C 274.12504,122.1394 270.4116,122.79479 268.37352,122.91169 C 256.56808,123.58882 251.16696,123.42052 239.13944,123.37207 C 237.56328,123.36578 234.54424,124.32791 234.53576,125.90413 C 234.52744,127.4502 237.47896,128.13545 239.0244,128.09093 C 244.45256,127.93461 249.27016,128.85025 253.83,128.87941 z M 207.24805,125.82644 C 206.32885,124.78889 205.61941,122.80244 204.44805,122.87644 C 201.38933,123.06964 199.50117,128.99546 198.09797,133.52644 C 200.97109,131.20612 204.07653,128.56385 207.24805,125.82644 z M 209.99798,123.42644 C 210.43766,123.04975 237.0324,100.27685 247.798,92.876438 C 262.13544,83.02087 281.1428,69.377814 297.398,63.176438 C 301.31191,61.683286 306.65703,60.304358 311.14807,60.076438 C 311.78967,60.043878 312.44983,60.05983 313.04807,60.076438 C 318.59911,60.23055 320.74839,62.52615 318.14807,70.026438 C 316.80519,73.899686 314.07959,78.51503 310.99799,80.976438 C 309.60519,82.089014 305.93975,83.040838 307.34807,79.376438 C 308.44727,76.516214 314.77687,70.349318 314.69799,67.726438 C 314.63559,65.645062 311.86391,64.964038 309.34807,64.926438 C 306.05655,64.877254 301.75799,66.443734 298.74807,67.776438 C 285.6276,73.585718 270.14456,83.56567 256.44808,92.876438 C 244.38504,101.07668 233.99334,109.65066 223.99798,116.02644 C 222.75222,116.82106 221.86742,117.26325 224.04806,117.97644 C 230.24934,120.00468 233.72502,125.75167 236.24808,130.57644 C 239.3412,136.49141 238.27976,146.99941 245.298,147.97644 C 246.77128,148.18154 248.77544,147.06586 249.598,145.82644 C 250.1164,145.0453 251.09112,144.03437 252.798,144.12644 C 255.82536,144.28972 254.73512,146.61325 253.398,147.77644 C 249.17176,151.45323 246.12088,154.35297 242.698,154.22643 C 237.08744,154.02101 235.27176,146.21121 232.94806,138.92644 C 231.17654,133.37258 229.55558,123.29754 220.84806,123.02644 C 215.41062,122.85716 213.25238,124.59335 209.74806,127.82644 C 205.65813,131.59962 201.39445,135.67385 197.19797,138.87644 C 197.10837,142.0354 197.42693,145.22745 199.24805,146.27644 C 206.77605,150.61305 217.17446,143.02354 220.04806,139.92644 C 222.14118,137.6705 225.14134,140.08706 223.14806,142.67644 C 218.54054,148.66175 209.93206,153.02929 203.54805,153.07643 C 196.08533,153.13153 193.22085,146.94156 192.59797,141.97644 C 191.39317,142.67417 190.17029,143.28692 188.99797,143.72644 C 185.95796,144.86633 185.17124,141.66193 186.29796,141.22644 C 188.25971,140.46826 190.42725,139.19085 192.69797,137.62644 C 193.48405,133.37317 195.95941,127.18991 198.84805,122.72644 C 200.29797,120.48591 204.03669,115.87581 206.64805,116.42644 C 208.67686,116.85421 209.80614,120.63524 209.99798,123.42644 z"
       id="path3275"
       style="fill:#000000;fill-opacity:1;fill-rule:evenodd;stroke:none;stroke-width:0.1;stroke-linecap:butt;stroke-linejoin:miter;stroke-miterlimit:4;stroke-dasharray:none;stroke-opacity:1" />
    <path
       d="M 491.71911,135.77644 C 488.98679,143.13162 480.12487,152.32643 467.66903,152.32643 C 452.96487,152.32643 447.26903,139.37319 447.26903,128.02644 C 447.26903,120.73055 450.07943,112.46287 455.21911,109.37644 C 456.47159,108.62429 457.76951,108.06866 459.06903,107.62644 C 460.24455,105.51042 463.17287,102.76177 464.46903,101.72644 C 469.55399,97.66503 475.09287,92.92631 480.36903,90.026438 C 483.60855,88.246006 487.47719,86.476438 490.66903,86.476438 C 495.93335,86.476438 494.78775,92.24759 494.36903,95.076438 C 493.93031,98.041766 490.75463,103.53871 487.86903,102.72644 C 485.54343,102.07177 487.92935,97.975318 488.01911,96.126438 C 488.16167,93.188694 486.13479,90.70551 481.36903,94.176438 C 477.30631,97.13535 471.40327,101.1034 467.36903,104.27644 C 466.57447,104.90138 465.73607,105.77127 464.86903,106.62644 C 473.54807,106.34161 482.16711,111.31729 487.16903,117.27644 C 492.64263,123.7973 497.54263,130.18927 500.86903,135.22644 C 504.73335,141.0781 508.33767,139.03121 511.56903,135.02644 C 514.87159,130.93353 517.29127,126.53679 517.31911,120.82644 C 517.32567,119.47367 515.94983,117.57735 515.41911,115.97644 C 509.30999,116.04463 502.14391,115.72111 496.46903,115.32644 C 491.85543,115.00556 484.63719,115.91497 484.51911,114.07644 C 484.38231,111.94946 495.30007,109.78642 500.34791,109.86565 C 503.79943,109.92068 508.14519,110.28447 515.10823,110.73004 C 521.92919,111.16652 529.97767,110.83183 529.66903,112.87644 C 529.26647,115.54437 525.88151,115.79429 522.01911,115.87644 C 521.45783,123.45938 519.73895,129.15621 517.06903,134.07644 C 514.86663,138.13529 509.92855,142.42757 506.86903,144.82644 C 504.70631,146.5222 500.75335,147.13513 497.81911,143.62644 C 495.87335,141.29994 493.80471,138.54781 491.71911,135.77644 z M 489.31911,132.62644 C 487.60455,130.39823 485.84647,128.17732 484.11911,126.27644 C 481.42807,123.31516 478.39991,119.43665 474.86903,116.52644 C 471.17671,113.48324 467.74039,112.40743 464.36903,111.57644 C 456.81095,109.71346 455.92551,116.79775 455.71911,121.97644 C 455.51927,126.98631 457.39559,133.94956 460.16903,138.12644 C 463.48455,143.11932 468.05095,144.35449 472.41911,144.37644 C 476.99447,144.39943 481.46103,142.73364 487.01911,137.62644 C 489.06855,135.74314 489.33447,133.98841 489.31911,132.62644 z"
       id="path3277"
       style="fill:#000000;fill-opacity:1;fill-rule:evenodd;stroke:none;stroke-width:0.1;stroke-linecap:butt;stroke-linejoin:miter;stroke-miterlimit:4;stroke-dasharray:none;stroke-opacity:1" />
    <path
       d="M 600.94119,128.64689 C 600.85415,129.98833 600.57719,131.60793 599.29127,133.39689 C 594.88551,139.52589 588.41655,143.46988 583.84119,143.44689 C 579.47303,143.42493 574.85047,142.93493 572.74119,140.89689 C 570.16807,138.41426 568.69063,135.82218 568.69127,132.84689 C 568.69239,126.69266 570.63719,121.52161 575.89127,117.79689 C 586.55479,110.23722 594.99591,120.40012 597.84119,124.24689 C 598.59719,125.26889 599.71767,126.86925 600.94119,128.64689 z M 603.29127,132.09689 C 607.06199,137.60781 611.49623,144.02437 614.19127,147.24689 C 617.12551,150.75557 619.69303,153.07489 622.44119,153.04689 C 627.87319,152.99059 635.13991,143.80645 638.14119,140.29689 C 641.53687,136.32626 647.14807,128.54593 648.69127,120.94689 C 654.61335,120.01122 660.59767,117.83223 664.34119,114.24689 C 666.50695,112.17265 668.11735,106.78439 662.39127,109.29689 C 657.50711,111.43991 652.13639,112.69687 644.79127,112.69689 C 634.52455,112.69689 624.52375,110.58322 619.99127,110.19689 C 616.27319,109.8826 616.81735,110.38745 615.14119,115.69689 C 613.12791,122.07442 611.96167,122.13698 616.99127,122.14689 C 624.14199,122.16105 633.09559,122.07969 641.54119,121.59689 C 641.67399,122.51754 641.79495,123.43778 641.79127,124.19689 C 641.76343,129.90724 637.88615,134.4817 634.74119,138.69689 C 627.52759,148.36537 623.50551,143.74855 619.64119,137.89689 C 616.31479,132.85972 608.88119,123.319 604.14119,116.24689 C 601.83591,112.8073 598.71063,110.37973 594.99127,109.14689 C 597.13303,108.26074 599.11031,107.34703 600.09127,107.09689 C 605.74983,105.65397 610.30087,99.078342 610.69127,93.246886 C 610.95191,89.399254 610.66727,84.984982 607.74119,83.546886 C 606.87799,83.122646 605.93047,82.87839 604.89127,82.846886 C 600.38807,82.710342 594.66695,85.922342 591.69127,89.396886 C 588.40487,93.234278 584.01111,99.166966 583.84119,104.94689 C 583.79799,106.41829 583.80391,107.74476 584.24119,108.79689 C 581.36711,109.43649 578.32151,110.63962 575.19127,112.44689 C 567.74663,116.74503 562.54119,129.60098 562.54119,136.89689 C 562.54119,144.17284 564.88375,152.04689 576.94119,152.04689 C 589.10279,152.04689 599.72103,140.31852 603.29127,132.09689 z M 588.32375,108.40989 C 588.64823,109.15277 589.34471,108.85815 590.07703,108.51081 C 592.24215,107.48412 597.62151,104.65647 599.80887,102.34505 C 602.34647,99.663734 604.18167,92.85615 601.38487,90.853686 C 599.39143,89.426534 594.51655,92.861526 591.38055,95.883206 C 588.12983,99.015366 587.46055,106.43292 588.32375,108.40989 z"
       id="path3279"
       style="fill:#000000;fill-opacity:1;fill-rule:evenodd;stroke:none;stroke-width:0.1;stroke-linecap:butt;stroke-linejoin:miter;stroke-miterlimit:4;stroke-dasharray:none;stroke-opacity:1" />
    <path
       d="M 734.15511,134.27154 C 729.17431,138.87693 722.44775,143.92154 714.30503,143.92154 C 708.56231,143.92154 702.63143,134.97391 702.80503,128.72154 C 702.94775,123.58434 707.41223,118.96999 713.25511,118.97154 C 718.63143,118.97305 722.87767,122.49551 727.25511,126.92154 C 728.65479,128.33682 731.45255,131.35028 734.15511,134.27154 z M 736.65511,136.97154 C 738.21831,138.71481 739.57607,140.28885 740.15511,141.12154 C 744.33639,147.1358 750.66855,151.67631 755.00503,152.47153 C 757.79495,152.98309 762.09095,151.38459 764.60503,150.07153 C 770.89831,146.78477 771.25911,142.68249 765.60503,143.22154 C 762.55463,143.51237 757.52039,141.18513 755.25511,139.12154 C 749.97015,134.30074 747.44071,131.70823 744.25511,128.92154 C 751.89175,119.32082 755.83975,115.31666 761.30503,109.67154 C 763.30711,107.60375 765.19543,106.03191 767.20503,103.97154 C 768.21143,102.93977 770.86359,98.398518 769.70503,97.171542 C 768.57191,95.971462 765.77959,97.213462 764.05511,98.421542 C 755.38279,104.49698 753.18663,112.62004 740.90503,126.02154 C 736.58583,122.16162 732.48343,116.20325 726.55511,113.57154 C 728.10711,112.72666 729.71175,111.65815 731.30503,110.47154 C 737.74887,105.67239 739.65255,97.752086 736.10503,94.021542 C 734.91191,92.766726 733.32135,92.203638 731.50503,92.171542 C 727.50919,92.100918 722.43847,94.62815 718.15511,98.321542 C 713.55895,102.2846 712.49479,108.96367 714.65511,112.77154 C 709.64119,113.75325 705.91623,115.99589 702.75511,118.72154 C 697.26167,123.45809 693.75511,128.36503 693.75511,135.72154 C 693.75511,142.79061 699.77879,153.32153 709.90503,153.32153 C 717.89015,153.32153 722.43559,149.49007 726.51159,146.02369 C 729.47367,143.50444 732.88183,139.96599 736.65511,136.97154 z M 720.54231,101.42105 C 722.35591,98.953526 725.96263,99.028182 728.20135,100.80481 C 730.43991,102.58129 731.21319,105.79497 729.16983,107.93567 C 727.06967,110.13151 723.56599,110.25364 721.33463,108.2878 C 719.77863,106.917 718.97127,103.5585 720.54231,101.42105 z"
       id="path3281"
       style="fill:#000000;fill-opacity:1;fill-rule:evenodd;stroke:none;stroke-width:0.1;stroke-linecap:butt;stroke-linejoin:miter;stroke-miterlimit:4;stroke-dasharray:none;stroke-opacity:1" />
    <path
       d="M 112.4665,199.35547 C 112.40816,199.76381 112.24046,199.99713 111.96338,200.05547 C 111.86128,200.08465 111.51858,200.07735 110.93526,200.03361 C 108.9665,199.88777 106.84462,199.91693 104.56962,200.12111 C 104.04462,200.16485 103.73108,200.16485 103.629,200.12111 C 103.454,200.04817 103.3665,199.79297 103.3665,199.35547 C 103.3665,198.99089 103.7238,198.69193 104.43838,198.45859 C 105.40088,198.15235 105.88212,197.35027 105.88214,196.05235 L 105.88214,187.21485 C 105.88212,186.29611 105.80192,185.66175 105.6415,185.31173 C 105.40816,184.77217 104.89046,184.40757 104.08838,184.21797 C 103.53422,184.08673 103.22066,184.00653 103.14776,183.97735 C 102.85608,183.81695 102.74672,183.55445 102.81962,183.18985 C 102.90712,182.78153 103.08212,182.54819 103.34462,182.48985 C 103.43212,182.46071 103.76754,182.46799 104.35088,182.51173 C 106.30504,182.65757 108.42692,182.62841 110.7165,182.42423 C 111.28524,182.38049 111.63524,182.40237 111.7665,182.48985 C 111.89774,182.56279 111.96336,182.79611 111.96338,183.18985 C 111.96336,183.55445 111.5915,183.85341 110.84776,184.08673 C 109.71024,184.43673 109.1415,185.24611 109.1415,186.51485 L 109.1415,195.33049 C 109.1415,196.26381 109.28004,196.93465 109.55714,197.34297 C 109.84878,197.80965 110.41024,198.13777 111.2415,198.32735 C 111.7665,198.44401 112.07274,198.53153 112.16026,198.58985 C 112.40816,198.73569 112.51024,198.99089 112.4665,199.35547 M 236.3915,197.08049 C 235.67692,198.21797 235.03524,199.84401 234.46652,201.95859 C 234.3644,202.35235 234.06546,202.48361 233.56964,202.35235 C 233.1467,202.26485 233.00816,201.91485 233.154,201.30235 C 233.29982,200.68985 232.94252,200.32527 232.08212,200.20859 C 230.56546,200.00443 226.92692,199.90235 221.16652,199.90235 C 220.97692,199.90235 220.85296,199.77839 220.79462,199.53049 C 220.72172,199.28257 220.76546,199.09297 220.92588,198.96173 C 224.57172,195.98673 227.05816,193.63881 228.38524,191.91797 C 229.53732,190.44507 230.11338,189.01591 230.11338,187.63049 C 230.11338,185.66175 229.08524,184.67737 227.029,184.67735 C 225.629,184.67737 223.98836,185.33361 222.10714,186.64609 C 221.74254,186.89403 221.39254,186.81383 221.05714,186.40547 C 220.88212,186.18673 220.79462,185.98985 220.79462,185.81485 C 220.79462,185.58153 220.94776,185.31903 221.254,185.02735 C 223.23732,183.08777 225.51964,182.11799 228.10088,182.11797 C 232.16962,182.11799 234.20398,183.65653 234.204,186.73361 C 234.20398,188.13361 233.4967,189.66487 232.08212,191.32735 C 231.00294,192.61069 229.13628,194.34611 226.48212,196.53361 C 226.26338,196.72319 226.154,196.87631 226.154,196.99297 C 226.154,197.13881 226.37276,197.21173 226.81026,197.21173 C 229.62484,197.21173 231.38212,197.19713 232.08212,197.16797 C 233.3217,197.10965 234.40086,196.86903 235.31964,196.44609 C 235.5967,196.31485 235.89564,196.30027 236.21652,196.40235 C 236.59564,196.53361 236.65398,196.75965 236.3915,197.08049 M 367.56337,197.47423 C 367.56335,202.84089 363.37795,206.20233 355.00713,207.55859 C 354.48211,207.64609 354.18315,207.43465 354.11025,206.92423 C 354.06651,206.55963 354.13211,206.31171 354.30713,206.18049 C 354.43837,206.06381 354.77379,205.93985 355.31337,205.80859 C 358.09879,205.16693 360.14773,204.32839 361.46025,203.29297 C 362.94773,202.11173 363.69147,200.52943 363.69149,198.54609 C 363.69147,197.23361 363.22483,196.19819 362.29149,195.43985 C 361.44565,194.73985 360.38107,194.38985 359.09775,194.38985 C 358.38315,194.38985 357.88731,194.41903 357.61025,194.47735 C 357.20191,194.56485 356.91753,194.35339 356.75713,193.84297 C 356.61129,193.39089 356.79357,193.04819 357.30399,192.81485 C 361.47483,190.88985 363.56023,188.89193 363.56025,186.82111 C 363.56023,184.99819 362.59043,184.08673 360.65087,184.08673 C 359.09045,184.08673 357.59565,184.48777 356.16651,185.28985 C 355.72899,185.53777 355.32795,185.45029 354.96337,185.02735 C 354.81755,184.85237 354.74461,184.70653 354.74461,184.58985 C 354.74461,184.38569 354.95607,184.13049 355.37899,183.82423 C 357.26025,182.40967 359.33107,181.70237 361.59149,181.70235 C 365.54357,181.70237 367.51961,183.16799 367.51963,186.09921 C 367.51961,188.53465 365.58731,190.62737 361.72275,192.37735 C 363.45815,192.30443 364.86545,192.72737 365.94461,193.64609 C 367.02377,194.56485 367.56335,195.84089 367.56337,197.47423 M 490.19461,198.87423 C 489.97585,199.72007 489.61857,200.12111 489.12275,200.07735 C 488.75815,200.04817 488.11647,200.01173 487.19775,199.96797 L 486.06025,199.90235 C 486.06023,201.24401 486.08939,203.35129 486.14775,206.22423 C 486.16231,206.54505 485.92169,206.80025 485.42587,206.98985 C 485.04669,207.09193 484.66023,207.19401 484.26651,207.29609 C 483.62483,207.47109 483.18003,207.53673 482.93211,207.49297 C 482.68419,207.44921 482.56753,207.28881 482.58211,207.01173 C 482.58211,206.23881 482.61127,204.90443 482.66963,203.00859 C 482.72795,201.33153 482.75711,200.28153 482.75713,199.85859 C 482.62587,199.84401 478.83419,199.70547 471.38211,199.44297 C 471.13419,199.44297 470.98837,199.26797 470.94461,198.91797 C 470.90087,198.55339 470.98107,198.25443 471.18523,198.02111 C 478.49149,189.65027 482.77899,184.23987 484.04775,181.78985 C 484.13523,181.62945 484.33211,181.54925 484.63837,181.54921 C 484.93003,181.54925 485.38939,181.65133 486.01651,181.85547 C 486.41023,181.97217 486.50501,182.40237 486.30087,183.14609 C 486.16961,183.97737 486.10397,185.02009 486.10399,186.27423 L 486.10399,197.56173 C 486.89147,197.56173 487.56961,197.50339 488.13837,197.38673 C 488.61961,197.28465 488.99877,197.05131 489.27587,196.68673 C 489.56751,196.32215 489.85919,196.16903 490.15087,196.22735 C 490.39877,196.28569 490.52273,196.51173 490.52275,196.90547 C 490.52273,197.29923 490.41335,197.95547 490.19461,198.87423 M 482.66963,197.43049 L 482.66963,187.12735 C 481.35711,189.13985 478.75399,192.51591 474.86025,197.25547 L 482.66963,197.43049 M 610.66651,181.61485 C 610.52065,181.89195 610.28731,182.61383 609.96651,183.78049 C 609.67483,184.77217 609.22273,185.26799 608.61025,185.26797 C 608.37691,185.26799 608.07795,185.20237 607.71337,185.07111 C 606.51753,184.61903 604.59253,184.39299 601.93837,184.39297 C 601.51545,184.39299 601.26025,184.58987 601.17275,184.98361 C 600.98315,186.06279 600.71337,187.40445 600.36337,189.00859 C 603.44043,190.04403 605.71545,191.18153 607.18837,192.42111 C 608.85085,193.83569 609.68211,195.53465 609.68211,197.51797 C 609.68211,200.47839 608.42795,202.87005 605.91963,204.69297 C 604.19877,205.94713 601.60295,207.05547 598.13211,208.01797 C 597.75295,208.12005 597.48315,207.90859 597.32275,207.38361 C 597.14775,206.81485 597.33003,206.44297 597.86963,206.26797 C 603.03211,204.47423 605.61337,201.87111 605.61337,198.45859 C 605.61337,196.56277 604.94981,194.95861 603.62275,193.64609 C 602.31025,192.33361 600.13731,191.10131 597.10399,189.94921 C 596.81233,189.84715 596.68837,189.64299 596.73211,189.33673 C 596.99461,187.49923 597.24983,185.55237 597.49775,183.49609 C 597.57067,182.88361 598.05191,182.57009 598.94149,182.55547 C 601.14357,182.52633 603.41129,182.45341 605.74461,182.33673 C 607.39251,182.24925 608.39147,182.02321 608.74149,181.65859 C 609.22273,181.16279 609.73315,180.91487 610.27275,180.91485 C 610.72481,180.91487 610.85607,181.14821 610.66651,181.61485 M 739.72275,191.39297 C 739.72273,194.04715 738.86961,196.22007 737.16337,197.91173 C 735.47169,199.58881 733.31335,200.42735 730.68837,200.42735 C 728.06337,200.42735 725.94877,199.55965 724.34461,197.82423 C 722.65295,195.97215 721.80713,193.40549 721.80713,190.12423 C 721.80713,185.73465 723.26545,181.86279 726.18211,178.50859 C 728.80711,175.48987 732.19043,173.31697 736.33211,171.98985 C 736.74043,171.85863 737.00293,171.96071 737.11963,172.29609 C 737.30919,172.82113 737.07585,173.25863 736.41963,173.60859 C 730.74669,176.55445 727.38523,180.37529 726.33523,185.07111 C 727.66233,183.70029 729.51441,183.01487 731.89149,183.01485 C 734.16649,183.01487 736.03315,183.77321 737.49149,185.28985 C 738.97899,186.85027 739.72273,188.88465 739.72275,191.39297 M 735.82899,191.78673 C 735.82899,189.80341 735.39877,188.18465 734.53837,186.93049 C 733.61961,185.60341 732.36545,184.93987 730.77587,184.93985 C 729.17171,184.93987 727.90295,185.53777 726.96963,186.73361 C 726.03627,187.92945 725.56963,189.55549 725.56963,191.61173 C 725.56963,193.68257 726.03627,195.34505 726.96963,196.59921 C 727.91753,197.83881 729.18627,198.45861 730.77587,198.45859 C 732.39461,198.45861 733.64147,197.86069 734.51651,196.66485 C 735.39147,195.46903 735.82899,193.84297 735.82899,191.78673"
       id="text2419"
       style="font-size:40px;font-style:normal;font-variant:normal;font-weight:normal;font-stretch:normal;fill:#000000;fill-opacity:1;stroke:none;stroke-width:1px;stroke-linecap:butt;stroke-linejoin:miter;stroke-opacity:1;font-family:High Tower Text;-inkscape-font-specification:High Tower Text" />
  </g>
</svg>
