<?xml version="1.0" encoding="UTF-8" standalone="no"?>
<!-- Created with Inkscape (http://www.inkscape.org/) -->
<svg
   xmlns:svg="http://www.w3.org/2000/svg"
   xmlns="http://www.w3.org/2000/svg"
   version="1.0"
   width="853"
   height="374"
   id="svg7070">
  <defs
     id="defs7072" />
  <g
     transform="translate(-147.78572,-642.50507)"
     id="layer1">
    <path
       d="M 149.28572,756.00507 L 1002.9344,756.00507"
       style="fill:none;fill-rule:evenodd;stroke:#737bff;stroke-width:3;stroke-linecap:square;stroke-linejoin:miter;stroke-miterlimit:4;stroke-dasharray:none;stroke-opacity:1"
       id="path7088" />
    <path
       d="M 149.28572,790.00507 L 1002.9344,790.00507"
       style="fill:none;fill-rule:evenodd;stroke:#737bff;stroke-width:3;stroke-linecap:square;stroke-linejoin:miter;stroke-miterlimit:4;stroke-dasharray:none;stroke-opacity:1"
       id="path7090" />
    <path
       d="M 149.28572,856.00507 L 1002.9344,856.00507"
       style="fill:none;fill-rule:evenodd;stroke:#737bff;stroke-width:3;stroke-linecap:square;stroke-linejoin:miter;stroke-miterlimit:4;stroke-dasharray:none;stroke-opacity:1"
       id="path7092" />
    <path
       d="M 149.28572,888.00507 L 1002.9344,888.00507"
       style="fill:none;fill-rule:evenodd;stroke:#737bff;stroke-width:3;stroke-linecap:square;stroke-linejoin:miter;stroke-miterlimit:4;stroke-dasharray:none;stroke-opacity:1"
       id="path7094" />
    <path
       d="M 299.5657,823.33444 C 299.56562,833.15173 296.23398,841.33181 289.57076,847.87469 C 282.9074,854.41758 274.81249,857.68902 265.286,857.68903 C 255.70949,857.68902 247.58962,854.41758 240.92635,847.87469 C 234.26304,841.33181 230.9314,833.15173 230.93141,823.33444 C 230.9314,813.47315 234.26304,805.27032 240.92635,798.72591 C 247.58962,792.18161 255.70949,788.90943 265.286,788.90937 C 274.81249,788.90943 282.9074,792.18161 289.57076,798.72591 C 296.23398,805.27032 299.56562,813.47315 299.5657,823.33444 L 299.5657,823.33444 z M 289.46504,823.33444 C 289.46497,815.01196 287.17951,808.24075 282.60866,803.02078 C 278.03768,797.80091 272.26347,795.19095 265.286,795.1909 C 258.26146,795.19095 252.46375,797.80091 247.89286,803.02078 C 243.32191,808.24075 241.03646,815.01196 241.03648,823.33444 C 241.03646,831.65991 243.32191,838.40836 247.89286,843.57981 C 252.46375,848.75129 258.26146,851.33702 265.286,851.33702 C 272.31045,851.33702 278.09641,848.75129 282.6439,843.57981 C 287.19126,838.40836 289.46497,831.65991 289.46504,823.33444 L 289.46504,823.33444 z M 355.17001,853.50428 C 355.16996,854.85221 354.83225,855.52617 354.15686,855.52617 C 352.13639,855.52617 349.20119,855.38081 345.35127,855.09008 C 341.16648,854.80228 337.89504,854.65839 335.53693,854.65839 C 333.13177,854.65839 329.83684,854.80228 325.65211,855.09008 C 321.89904,855.38081 319.03579,855.52617 317.06236,855.52617 C 316.29295,855.52617 315.90824,854.85221 315.90825,853.50428 C 315.90824,852.68495 316.08811,852.15488 316.44786,851.91407 C 316.8076,851.67327 317.51753,851.50588 318.57768,851.4119 C 322.33073,850.93029 324.77256,850.32828 325.90319,849.60585 C 327.03379,848.88344 327.83991,847.77705 328.32154,846.28669 C 328.80313,844.79634 329.04394,842.67974 329.04396,839.93688 L 329.04396,806.59103 C 329.04394,803.56045 328.73118,801.27499 328.10569,799.73465 C 327.48016,798.19443 326.49345,797.13576 325.14553,796.55865 C 323.79759,795.98165 321.4879,795.50077 318.21647,795.11601 C 317.25323,795.01916 316.62773,794.83856 316.33994,794.5742 C 316.05214,794.30996 315.90824,793.7931 315.90825,793.02364 C 315.90824,791.67577 316.29295,791.0018 317.06236,791.00174 C 319.03579,791.0018 321.89904,791.14717 325.65211,791.43784 C 329.83684,791.72569 333.13177,791.86959 335.53693,791.86953 C 337.89504,791.86959 341.16648,791.72569 345.35127,791.43784 C 349.20119,791.14717 352.13639,791.0018 354.15686,791.00174 C 354.83225,791.0018 355.16996,791.67577 355.17001,793.02364 C 355.16996,794.27472 354.42405,794.97217 352.93227,795.11601 C 349.03527,795.5507 346.49726,796.11674 345.31823,796.81414 C 344.13912,797.51165 343.29703,798.62979 342.79196,800.16854 C 342.28682,801.70741 342.03427,803.84824 342.0343,806.59103 L 342.0343,839.93688 C 342.03427,843.01452 342.33454,845.31099 342.93512,846.8263 C 343.53564,848.34162 344.49739,849.38854 345.8204,849.96706 C 347.14333,850.54559 349.39355,851.0272 352.57106,851.4119 C 353.58123,851.50588 354.26694,851.66152 354.62819,851.87883 C 354.98936,852.09615 355.16996,852.63796 355.17001,853.50428 L 355.17001,853.50428 z M 423.42987,838.49204 C 420.78388,843.64003 418.42574,849.31806 416.35544,855.52617 C 413.03696,854.94765 405.62776,854.65839 394.12782,854.65839 C 380.26967,854.65839 371.92221,854.94765 369.0854,855.52617 C 368.16915,855.52617 367.71103,854.9961 367.71104,853.93597 C 367.71103,853.69516 369.82837,851.57783 374.06305,847.58396 C 385.0814,837.19111 392.50308,829.3605 396.32812,824.0921 C 400.15309,818.82375 402.06559,814.38645 402.06563,810.78019 C 402.06559,803.465 398.02474,799.80739 389.94307,799.80733 C 384.16956,799.80739 378.75582,802.52674 373.70184,807.96539 C 373.46102,808.20331 373.09981,808.32224 372.61821,808.3222 C 371.9457,808.32224 371.3569,808.09392 370.8518,807.63722 C 370.34669,807.18062 370.09414,806.71148 370.09414,806.22982 C 370.09414,805.65429 371.70563,803.48997 374.92863,799.73685 C 378.1516,795.98385 381.37533,793.21678 384.5998,791.43563 C 387.82424,789.65461 391.19259,788.76407 394.70487,788.764 C 400.67214,788.76407 405.55581,790.4967 409.3559,793.9619 C 413.1559,797.42722 415.05592,801.87774 415.05597,807.31345 C 415.05592,810.82575 413.43194,814.77116 410.18404,819.14969 C 406.93604,823.52829 399.80289,830.55279 388.78455,840.2232 C 386.908,841.90886 385.51309,843.15988 384.5998,843.97626 L 407.54985,843.97626 C 410.29265,843.97627 412.37401,843.57909 413.79394,842.78471 C 415.21376,841.99036 417.12627,840.07785 419.53145,837.0472 C 419.9161,836.5656 420.4212,836.3248 421.04677,836.32478 C 421.62523,836.3248 422.17879,836.52963 422.70745,836.93928 C 423.23599,837.34896 423.4768,837.86655 423.42987,838.49204 L 423.42987,838.49204 z M 478.89323,849.60585 C 478.89318,855.42926 476.92047,861.1073 472.97511,866.63998 C 469.02966,872.17265 463.66511,876.97189 456.88145,881.03772 C 450.09772,885.10351 444.44465,887.13641 439.9222,887.13645 C 433.47621,887.13641 430.25322,885.21143 430.25322,881.36149 C 430.25322,878.18693 431.93593,876.59967 435.30135,876.59969 C 436.94,876.59967 438.93694,877.17672 441.29215,878.33085 C 443.16867,879.29405 444.637,879.77567 445.69715,879.77569 C 451.08591,879.77567 455.80072,876.97262 459.84161,871.36655 C 463.88242,865.76044 465.90285,859.3732 465.90288,852.2048 C 465.90285,847.53845 464.4837,843.58129 461.64545,840.33333 C 458.80713,837.08539 455.27066,835.46142 451.03601,835.4614 C 447.66764,835.46142 444.87781,836.13538 442.66651,837.48329 L 442.3053,837.55377 C 441.82368,837.55379 441.35454,837.27701 440.89791,836.72343 C 440.44124,836.16989 440.21292,835.60531 440.21293,835.02971 C 440.21292,834.45121 440.40527,834.06504 440.78998,833.87119 C 455.99308,826.51194 463.59463,818.38178 463.59466,809.48071 C 463.59463,806.35321 462.52421,803.8152 460.38342,801.86667 C 458.24256,799.91825 455.41602,798.94401 451.9038,798.94395 C 445.55177,798.94401 440.74005,801.25223 437.46861,805.86861 C 437.18081,806.25337 436.77115,806.44572 436.23962,806.44567 C 435.66402,806.44572 435.1112,806.24162 434.58114,805.83337 C 434.05106,805.42523 433.78603,805.00528 433.78603,804.57354 C 433.78603,803.61037 435.18168,801.60096 437.97299,798.5453 C 440.76427,795.48976 443.89182,793.09565 447.35563,791.36295 C 450.81941,789.63038 454.26044,788.76407 457.67875,788.764 C 462.82669,788.76407 467.26472,790.44824 470.99286,793.81654 C 474.72091,797.18495 476.58496,801.05841 476.58501,805.43692 C 476.58496,809.19003 475.33394,812.73825 472.83195,816.0816 C 470.32987,819.42503 466.24056,822.99822 460.56403,826.80117 C 466.38446,827.5706 470.89444,829.95224 474.09398,833.94608 C 477.29343,837.93996 478.89318,843.15988 478.89323,849.60585 L 478.89323,849.60585 z M 559.69853,850.75996 C 559.69845,853.35891 559.07294,854.65839 557.822,854.65839 L 542.16222,854.65839 L 542.16222,884.10581 C 542.16217,886.1262 539.99638,887.13641 535.66485,887.13645 C 531.33322,887.13641 529.16743,886.1262 529.16748,884.10581 L 529.16748,854.65839 L 490.7735,854.65839 C 489.81027,854.65839 489.32866,854.08133 489.32866,852.92722 C 489.32866,852.44561 489.76182,851.67474 490.62814,850.6146 L 536.96432,791.5788 C 538.3122,790.04005 539.75557,789.27064 541.29444,789.27058 C 542.64231,789.27064 543.31628,789.65534 543.31633,790.42469 C 542.54687,798.50938 542.16217,806.88181 542.16222,815.54199 L 542.16222,846.86594 L 557.96736,846.86594 C 559.1214,846.86595 559.69845,848.16396 559.69853,850.75996 L 559.69853,850.75996 z M 529.16748,846.86594 L 529.16748,808.90366 L 500.15615,846.86594 L 529.16748,846.86594 z M 618.97219,787.75526 L 615.50986,795.90891 C 614.3557,798.70174 613.08046,800.65095 611.68412,801.75655 C 610.28769,802.86225 608.38693,803.41508 605.98185,803.41503 L 583.75422,803.41503 L 579.8558,813.5201 C 579.47108,814.43344 579.27873,815.17935 579.27874,815.75784 C 579.27873,816.91198 580.14504,817.75334 581.87769,818.2819 C 599.96752,823.72064 609.01244,834.25885 609.01249,849.89658 C 609.01244,859.85481 604.79025,868.55101 596.34591,875.98519 C 587.9015,883.41933 578.02624,887.13641 566.72009,887.13645 C 565.95068,887.13641 565.56598,886.46245 565.56598,885.11455 C 565.56598,883.76659 565.95068,883.09263 566.72009,883.09266 C 575.43023,883.09263 582.51566,880.42247 587.97641,875.08217 C 593.43711,869.74182 596.16748,862.88545 596.16751,854.51302 C 596.16748,847.87323 594.50753,842.66505 591.18766,838.88849 C 587.86773,835.11196 582.07003,831.99616 573.79452,829.54108 C 571.48335,828.86861 570.32778,827.61759 570.32778,825.78802 C 570.32778,825.06857 570.52013,824.25071 570.90484,823.33444 L 583.46349,792.44658 C 583.8981,791.29253 584.71596,790.71548 585.91708,790.71542 L 608.00374,790.71542 C 609.78332,790.71548 611.13051,790.45045 612.04533,789.92031 C 612.96005,789.39031 613.92254,788.33238 614.93281,786.74651 C 615.31746,786.07115 615.89451,785.73343 616.66397,785.73336 C 617.24244,785.73343 617.77177,785.92578 618.25197,786.31042 C 618.73206,786.69519 618.97214,787.1768 618.97219,787.75526 L 618.97219,787.75526 z M 691.52696,758.88489 C 691.52689,759.65733 691.3595,760.09049 691.02479,760.18437 C 677.74513,764.61295 666.60637,772.81725 657.60847,784.7973 C 648.6105,796.77749 644.11153,809.86399 644.11155,824.05686 C 644.11153,833.19872 645.56664,840.32013 648.4769,845.4211 C 651.38711,850.5221 655.51312,853.07259 660.85495,853.07259 C 666.00288,853.07259 669.96004,850.88331 672.72642,846.50473 C 675.49271,842.12618 676.87588,835.84612 676.87593,827.66455 C 676.87588,820.88089 675.51694,815.57654 672.79911,811.75149 C 670.08117,807.92653 666.3406,806.01403 661.57737,806.01398 C 659.65382,806.01403 657.82574,806.44719 656.09315,807.31345 L 655.51609,807.45882 C 654.93754,807.45887 654.40747,807.15786 653.92589,806.55579 C 653.44424,805.95383 653.20344,805.41201 653.20347,804.93035 C 653.20344,804.0171 654.87587,802.52601 658.22076,800.45707 C 661.56559,798.38825 664.70488,797.35381 667.63865,797.35375 C 674.61612,797.35381 680.22147,799.98799 684.45473,805.25632 C 688.68787,810.52474 690.80447,817.41709 690.80454,825.93339 C 690.80447,834.44974 687.77384,841.87142 681.71262,848.19845 C 675.65129,854.5255 668.31404,857.68902 659.70084,857.68903 C 650.94367,857.68902 643.72609,854.53798 638.04807,848.2359 C 632.37001,841.93382 629.53099,834.30731 629.531,825.35633 C 629.53099,808.66143 637.34986,792.97671 652.98762,778.30213 C 657.12535,774.40525 661.61184,770.8328 666.4471,767.58476 C 671.28227,764.3369 676.11822,761.64251 680.95496,759.50159 C 685.79159,757.36086 688.78699,756.29044 689.94116,756.29035 C 690.99829,756.29044 691.52689,757.15529 691.52696,758.88489 L 691.52696,758.88489 z M 758.34198,792.59195 L 758.12613,793.31437 L 720.81579,886.41403 C 720.33415,887.66501 718.93777,888.29052 716.62664,888.29056 C 714.50928,888.29052 713.45062,887.68851 713.45063,886.48451 L 713.52552,885.98234 L 748.52764,804.57354 L 718.36221,804.57354 C 715.81022,804.57359 713.4998,805.30703 711.43094,806.77384 C 709.36205,808.24075 707.87096,810.20171 706.95766,812.65672 C 706.66986,813.42617 705.9959,813.81087 704.93577,813.81083 C 703.78165,813.81087 703.10769,813.37771 702.91387,812.51135 C 705.22502,805.19617 706.9092,798.0263 707.96641,791.00174 C 710.37152,791.58033 718.35925,791.86959 731.9296,791.86953 C 746.21937,791.86959 754.63879,791.58033 757.18787,791.00174 C 757.95722,791.0018 758.34192,791.53187 758.34198,792.59195 L 758.34198,792.59195 z M 824.64161,832.57172 C 824.64155,839.64616 822.04334,845.60098 816.84697,850.43619 C 811.65049,855.27141 805.01143,857.68902 796.92976,857.68903 C 788.74819,857.68902 782.15538,855.47551 777.15132,851.04849 C 772.14723,846.62147 769.64519,841.08807 769.6452,834.44825 C 769.64519,829.59103 771.50997,824.6846 775.23955,819.72894 C 778.9691,814.77336 783.93646,810.49097 790.14166,806.88176 C 779.2701,798.12468 773.83434,789.87266 773.83435,782.12567 C 773.83434,774.76353 776.28792,768.61709 781.19511,763.68634 C 786.10225,758.75577 792.16499,756.29044 799.38335,756.29035 C 806.79251,756.29044 812.83029,758.37107 817.49671,762.53223 C 822.16301,766.69357 824.49619,771.9737 824.49625,778.37261 C 824.49619,783.03904 822.77604,787.74211 819.33579,792.48182 C 815.89543,797.22166 811.64975,801.01142 806.59874,803.85112 C 813.38238,809.72156 818.08545,814.83356 820.70795,819.18713 C 823.33033,823.54077 824.64155,828.00229 824.64161,832.57172 L 824.64161,832.57172 z M 814.25022,779.09503 C 814.25017,773.36861 812.97492,768.90562 810.42448,765.70603 C 807.87394,762.50663 804.38592,760.90688 799.9604,760.90679 C 795.24408,760.90688 791.63493,762.2783 789.13291,765.02106 C 786.63085,767.76399 785.37983,771.73289 785.37986,776.92777 C 785.37983,783.03904 791.29868,791.05026 803.13641,800.96144 C 806.11708,798.75019 808.71456,795.51546 810.92885,791.25723 C 813.14305,786.99913 814.25017,782.94507 814.25022,779.09503 L 814.25022,779.09503 z M 811.21958,836.32478 C 811.21953,832.04314 810.20859,828.18216 808.18674,824.74183 C 806.1648,821.30156 801.30536,816.35842 793.60839,809.9124 C 784.85123,815.49211 780.47267,823.38292 780.47269,833.58487 C 780.47267,839.45528 781.91604,844.17083 784.8028,847.73152 C 787.68952,851.29224 791.53802,853.07259 796.3483,853.07259 C 801.06455,853.07259 804.72216,851.62848 807.32116,848.74027 C 809.92006,845.85207 811.21953,841.71357 811.21958,836.32478 L 811.21958,836.32478 z M 900.4164,823.33444 C 900.41633,830.74367 898.81658,838.22555 895.61715,845.78011 C 892.41759,853.33469 887.88265,860.35992 882.01231,866.85583 C 878.59692,870.60887 874.89232,873.97649 870.8985,876.9587 C 866.9046,879.94085 862.80281,882.38269 858.59313,884.28421 C 854.3834,886.18567 851.74995,887.13641 850.69277,887.13645 C 850.25812,887.13641 849.87268,886.84789 849.53645,886.27086 C 849.20019,885.69378 849.03206,885.11599 849.03208,884.5375 C 849.03206,883.76806 849.24791,883.31141 849.67962,883.16754 C 860.31326,880.13394 869.01018,873.04851 875.77043,861.91122 C 882.53058,850.77391 885.91068,837.915 885.91074,823.33444 C 885.91068,814.04874 884.41886,806.72397 881.43526,801.3601 C 878.45156,795.99633 874.36225,793.31443 869.16733,793.31437 C 863.9694,793.31443 859.97554,795.41928 857.18573,799.62893 C 854.39588,803.83869 853.00096,809.81701 853.00099,817.56389 C 853.00096,823.24049 854.38413,827.88336 857.15049,831.49249 C 859.91681,835.10168 863.68161,836.90626 868.44491,836.90624 C 870.85,836.90626 872.87043,836.44814 874.50619,835.53188 L 875.01277,835.38651 C 875.54132,835.38653 876.05818,835.67579 876.56333,836.2543 C 877.06839,836.83284 877.32094,837.40989 877.32099,837.98546 C 877.32094,838.94871 875.56482,840.45301 872.05261,842.49839 C 868.54032,844.54378 865.31733,845.56648 862.38363,845.56647 C 855.98461,845.56648 850.48718,842.99176 845.89132,837.8423 C 841.29542,832.69288 838.99749,826.51047 838.99749,819.29505 C 838.99749,810.96965 842.02886,803.79978 848.09161,797.78544 C 854.15434,791.77121 861.56427,788.76407 870.32144,788.764 C 879.26942,788.76407 886.52224,791.97604 892.07994,798.39994 C 897.63751,804.82394 900.41633,813.13544 900.4164,823.33444 L 900.4164,823.33444 z "
       style="font-size:144.34301758px;font-style:normal;font-weight:normal;text-align:center;text-anchor:middle;fill:#000000;fill-opacity:1;stroke:none;stroke-width:1px;stroke-linecap:butt;stroke-linejoin:miter;stroke-opacity:1;font-family:Hoefler Text"
       id="text7096" />
  </g>
</svg>
